<?xml version="1.0" encoding="UTF-8"?><svg xmlns="http://www.w3.org/2000/svg" xmlns:xlink="http://www.w3.org/1999/xlink" contentScriptType="text/ecmascript" width="60pt" zoomAndPan="magnify" contentStyleType="text/css" viewBox="0 0 60 60" height="60pt" preserveAspectRatio="xMidYMid meet" version="1.2"><defs><clipPath xml:id="clip1" id="clip1"><path d="M 6 6.507812 L 53.015625 6.507812 L 53.015625 53.523438 L 6 53.523438 Z M 6 6.507812 "/></clipPath></defs><g xml:id="surface1" id="surface1"><g clip-rule="nonzero" clip-path="url(#clip1)"><path style=" stroke:none;fill-rule:nonzero;fill:rgb(33.729553%,23.919678%,48.629761%);fill-opacity:1;" d="M 6 47.460938 C 6 50.808594 8.714844 53.523438 12.0625 53.523438 L 46.953125 53.523438 C 50.300781 53.523438 53.015625 50.808594 53.015625 47.460938 L 53.015625 12.570312 C 53.015625 9.21875 50.300781 6.507812 46.953125 6.507812 L 12.0625 6.507812 C 8.714844 6.507812 6 9.222656 6 12.570312 Z M 6 47.460938 "/></g><path style=" stroke:none;fill-rule:nonzero;fill:rgb(100%,100%,100%);fill-opacity:1;" d="M 25.496094 27.304688 L 25.496094 20.644531 L 31.359375 20.644531 C 31.917969 20.644531 32.453125 20.691406 32.972656 20.785156 C 33.488281 20.878906 33.949219 21.042969 34.347656 21.285156 C 34.746094 21.523438 35.066406 21.855469 35.304688 22.28125 C 35.542969 22.707031 35.664062 23.25 35.664062 23.914062 C 35.664062 25.109375 35.304688 25.972656 34.585938 26.507812 C 33.871094 27.039062 32.953125 27.304688 31.835938 27.304688 Z M 19.238281 15.78125 L 19.238281 44.25 L 33.03125 44.25 C 34.308594 44.25 35.550781 44.089844 36.757812 43.769531 C 37.96875 43.453125 39.046875 42.960938 39.988281 42.292969 C 40.933594 41.628906 41.683594 40.773438 42.242188 39.722656 C 42.800781 38.671875 43.078125 37.429688 43.078125 35.996094 C 43.078125 34.214844 42.648438 32.691406 41.785156 31.429688 C 40.917969 30.167969 39.613281 29.285156 37.855469 28.777344 C 39.132812 28.167969 40.097656 27.382812 40.746094 26.425781 C 41.398438 25.46875 41.722656 24.273438 41.722656 22.839844 C 41.722656 21.507812 41.503906 20.394531 41.066406 19.488281 C 40.628906 18.585938 40.011719 17.859375 39.214844 17.316406 C 38.414062 16.769531 37.457031 16.378906 36.34375 16.140625 C 35.226562 15.902344 33.988281 15.78125 32.632812 15.78125 Z M 25.496094 39.386719 L 25.496094 31.570312 L 32.316406 31.570312 C 33.671875 31.570312 34.757812 31.882812 35.582031 32.507812 C 36.410156 33.132812 36.820312 34.175781 36.820312 35.636719 C 36.820312 36.378906 36.691406 36.992188 36.441406 37.472656 C 36.1875 37.949219 35.851562 38.328125 35.425781 38.605469 C 35 38.886719 34.507812 39.085938 33.949219 39.207031 C 33.390625 39.324219 32.808594 39.386719 32.195312 39.386719 Z M 25.496094 39.386719 "/></g></svg>