<?xml version="1.0" encoding="UTF-8"?><svg xmlns="http://www.w3.org/2000/svg" xmlns:xlink="http://www.w3.org/1999/xlink" contentScriptType="text/ecmascript" width="60pt" zoomAndPan="magnify" contentStyleType="text/css" viewBox="0 0 60 60" height="60pt" preserveAspectRatio="xMidYMid meet" version="1.2"><defs><clipPath xml:id="clip1" id="clip1"><path d="M 9.285156 6.855469 L 50.363281 6.855469 L 50.363281 53.355469 L 9.285156 53.355469 Z M 9.285156 6.855469 "/></clipPath></defs><g xml:id="surface1" id="surface1"><g clip-rule="nonzero" clip-path="url(#clip1)"><path style=" stroke:none;fill-rule:nonzero;fill:rgb(0.779724%,46.669006%,74.119568%);fill-opacity:1;" d="M 50.351562 6.855469 L 9.296875 6.855469 L 12.917969 48.664062 L 29.824219 53.582031 L 46.730469 48.664062 Z M 50.351562 6.855469 "/></g><path style=" stroke:none;fill-rule:nonzero;fill:rgb(1.179504%,60.778809%,89.7995%);fill-opacity:1;" d="M 29.824219 10.546875 L 29.824219 49.769531 L 43.347656 45.835938 L 46.367188 10.546875 Z M 29.824219 10.546875 "/><path style=" stroke:none;fill-rule:nonzero;fill:rgb(100%,100%,100%);fill-opacity:1;" d="M 40.8125 16.695312 L 29.824219 16.695312 L 29.824219 21.613281 L 35.742188 21.613281 L 35.378906 26.53125 L 29.824219 26.53125 L 29.824219 31.449219 L 35.136719 31.449219 L 34.773438 36.980469 L 29.824219 38.703125 L 29.824219 43.867188 L 39.363281 40.671875 L 40.210938 26.53125 Z M 40.8125 16.695312 "/><path style=" stroke:none;fill-rule:nonzero;fill:rgb(93.328857%,93.328857%,93.328857%);fill-opacity:1;" d="M 29.824219 16.695312 L 29.824219 21.613281 L 19.078125 21.613281 L 18.714844 16.695312 Z M 24.269531 26.53125 L 24.511719 31.449219 L 29.824219 31.449219 L 29.824219 26.53125 Z M 24.753906 33.90625 L 19.921875 33.90625 L 20.285156 40.671875 L 29.824219 43.867188 L 29.824219 38.703125 L 24.875 36.980469 Z M 24.753906 33.90625 "/></g></svg>