<?xml version="1.0" encoding="UTF-8"?><svg xmlns="http://www.w3.org/2000/svg" xmlns:xlink="http://www.w3.org/1999/xlink" contentScriptType="text/ecmascript" width="60pt" zoomAndPan="magnify" contentStyleType="text/css" viewBox="0 0 60 60" height="60pt" preserveAspectRatio="xMidYMid meet" version="1.2"><defs><clipPath xml:id="clip1" id="clip1"><path d="M 6.386719 6.386719 L 53.636719 6.386719 L 53.636719 53.636719 L 6.386719 53.636719 Z M 6.386719 6.386719 "/></clipPath></defs><g xml:id="surface1" id="surface1"><g clip-rule="nonzero" clip-path="url(#clip1)"><path style=" stroke:none;fill-rule:nonzero;fill:rgb(94.119263%,23.529053%,18.03894%);fill-opacity:1;" d="M 52.765625 27.917969 L 32.125 7.277344 C 31.839844 6.992188 31.511719 6.773438 31.140625 6.617188 C 30.765625 6.460938 30.378906 6.386719 29.972656 6.386719 C 29.570312 6.386719 29.183594 6.460938 28.808594 6.617188 C 28.4375 6.773438 28.105469 6.992188 27.820312 7.277344 L 23.539062 11.5625 L 28.972656 16.996094 C 30.238281 16.554688 31.6875 16.855469 32.695312 17.863281 C 33.183594 18.355469 33.503906 18.9375 33.660156 19.613281 C 33.816406 20.289062 33.777344 20.953125 33.550781 21.605469 L 38.792969 26.847656 C 40.058594 26.410156 41.523438 26.691406 42.535156 27.707031 C 42.875 28.046875 43.136719 28.4375 43.320312 28.882812 C 43.503906 29.328125 43.597656 29.789062 43.597656 30.269531 C 43.597656 30.75 43.503906 31.210938 43.320312 31.65625 C 43.136719 32.101562 42.875 32.492188 42.535156 32.832031 C 42.195312 33.171875 41.804688 33.433594 41.359375 33.617188 C 40.914062 33.800781 40.453125 33.894531 39.972656 33.894531 C 39.492188 33.890625 39.027344 33.800781 38.585938 33.617188 C 38.140625 33.433594 37.75 33.171875 37.410156 32.828125 C 36.347656 31.765625 36.082031 30.199219 36.621094 28.890625 L 31.734375 24.003906 L 31.734375 36.863281 C 32.089844 37.039062 32.410156 37.269531 32.695312 37.546875 C 33.035156 37.886719 33.296875 38.28125 33.480469 38.722656 C 33.664062 39.167969 33.753906 39.628906 33.753906 40.109375 C 33.753906 40.589844 33.664062 41.050781 33.480469 41.496094 C 33.296875 41.941406 33.035156 42.332031 32.695312 42.671875 C 32.355469 43.011719 31.960938 43.273438 31.519531 43.457031 C 31.074219 43.640625 30.613281 43.734375 30.132812 43.734375 C 29.652344 43.734375 29.191406 43.640625 28.746094 43.457031 C 28.300781 43.273438 27.910156 43.011719 27.570312 42.671875 C 27.230469 42.332031 26.96875 41.941406 26.785156 41.496094 C 26.601562 41.050781 26.507812 40.589844 26.507812 40.109375 C 26.507812 39.628906 26.601562 39.167969 26.785156 38.722656 C 26.96875 38.28125 27.230469 37.886719 27.570312 37.546875 C 27.921875 37.199219 28.308594 36.933594 28.757812 36.757812 L 28.757812 23.777344 C 28.324219 23.601562 27.921875 23.339844 27.570312 22.988281 C 27.316406 22.734375 27.105469 22.449219 26.933594 22.132812 C 26.765625 21.8125 26.648438 21.480469 26.578125 21.125 C 26.507812 20.773438 26.492188 20.417969 26.527344 20.0625 C 26.5625 19.703125 26.652344 19.359375 26.789062 19.027344 L 21.429688 13.667969 L 7.277344 27.804688 C 6.988281 28.089844 6.769531 28.421875 6.613281 28.792969 C 6.460938 29.167969 6.382812 29.554688 6.382812 29.957031 C 6.382812 30.363281 6.460938 30.75 6.613281 31.125 C 6.769531 31.496094 6.988281 31.828125 7.277344 32.113281 L 27.917969 52.75 C 28.203125 53.035156 28.53125 53.253906 28.902344 53.410156 C 29.277344 53.5625 29.664062 53.640625 30.070312 53.640625 C 30.472656 53.640625 30.859375 53.5625 31.234375 53.410156 C 31.605469 53.253906 31.9375 53.035156 32.222656 52.75 L 52.765625 32.238281 C 53.050781 31.953125 53.273438 31.621094 53.425781 31.25 C 53.582031 30.875 53.660156 30.488281 53.660156 30.085938 C 53.660156 29.679688 53.582031 29.292969 53.425781 28.917969 C 53.273438 28.546875 53.050781 28.214844 52.765625 27.929688 "/></g></g></svg>