<?xml version="1.0" encoding="UTF-8"?><svg xmlns="http://www.w3.org/2000/svg" xmlns:xlink="http://www.w3.org/1999/xlink" contentScriptType="text/ecmascript" width="60pt" zoomAndPan="magnify" contentStyleType="text/css" viewBox="0 0 60 60" height="60pt" preserveAspectRatio="xMidYMid meet" version="1.2"><defs><clipPath xml:id="clip1" id="clip1"><path d="M 22 6.363281 L 50.320312 6.363281 L 50.320312 53.601562 L 22 53.601562 Z M 22 6.363281 "/></clipPath><clipPath xml:id="clip2" id="clip2"><path d="M 9.820312 6.363281 L 30 6.363281 L 30 53.601562 L 9.820312 53.601562 Z M 9.820312 6.363281 "/></clipPath></defs><g xml:id="surface1" id="surface1"><g clip-rule="nonzero" clip-path="url(#clip1)"><path style=" stroke:none;fill-rule:nonzero;fill:rgb(33.729553%,30.198669%,50.19989%);fill-opacity:1;" d="M 44.886719 6.363281 L 29.84375 6.363281 L 22.867188 29.984375 L 29.84375 53.601562 L 44.886719 53.601562 C 47.964844 53.601562 50.46875 51.117188 50.46875 48.066406 L 50.46875 11.898438 C 50.46875 8.847656 47.964844 6.363281 44.886719 6.363281 Z M 44.886719 6.363281 "/></g><g clip-rule="nonzero" clip-path="url(#clip2)"><path style=" stroke:none;fill-rule:nonzero;fill:rgb(50.19989%,38.42926%,65.489197%);fill-opacity:1;" d="M 15.40625 6.363281 C 12.328125 6.363281 9.824219 8.847656 9.824219 11.898438 L 9.824219 48.066406 C 9.824219 51.117188 12.328125 53.601562 15.40625 53.601562 L 29.84375 53.601562 L 29.84375 6.363281 Z M 15.40625 6.363281 "/></g><path style=" stroke:none;fill-rule:nonzero;fill:rgb(93.728638%,96.469116%,97.648621%);fill-opacity:1;" d="M 38.703125 26.035156 C 37.050781 24.644531 34.808594 24.0625 32.554688 24.433594 L 29.84375 24.882812 L 27.054688 27.726562 L 29.84375 30.492188 L 33.472656 29.894531 C 34.113281 29.789062 34.691406 29.917969 35.097656 30.257812 C 35.503906 30.601562 35.726562 31.144531 35.726562 31.789062 L 35.726562 48.066406 L 41.308594 48.066406 L 41.308594 31.789062 C 41.308594 29.523438 40.359375 27.425781 38.703125 26.035156 Z M 38.703125 26.035156 "/><path style=" stroke:none;fill-rule:nonzero;fill:rgb(100%,100%,100%);fill-opacity:1;" d="M 24.566406 25.753906 L 24.566406 11.898438 L 18.984375 11.898438 L 18.984375 32.289062 L 29.84375 30.492188 L 29.84375 24.882812 Z M 24.566406 25.753906 "/><path style=" stroke:none;fill-rule:nonzero;fill:rgb(100%,100%,100%);fill-opacity:1;" d="M 18.984375 38.5625 L 24.566406 42.714844 L 18.984375 46.867188 Z M 18.984375 38.5625 "/><path style=" stroke:none;fill-rule:nonzero;fill:rgb(93.728638%,96.469116%,97.648621%);fill-opacity:1;" d="M 40.671875 17.515625 C 41.089844 15.691406 41.308594 13.8125 41.308594 11.898438 L 35.726562 11.898438 C 35.726562 13.851562 35.433594 15.734375 34.894531 17.515625 Z M 40.671875 17.515625 "/></g></svg>