<?xml version="1.0" encoding="UTF-8"?><svg xmlns="http://www.w3.org/2000/svg" xmlns:xlink="http://www.w3.org/1999/xlink" contentScriptType="text/ecmascript" width="60pt" zoomAndPan="magnify" contentStyleType="text/css" viewBox="0 0 60 60" height="60pt" preserveAspectRatio="xMidYMid meet" version="1.2"><defs><clipPath xml:id="clip1" id="clip1"><path d="M 9.273438 6.316406 L 50.328125 6.316406 L 50.328125 53.449219 L 9.273438 53.449219 Z M 9.273438 6.316406 "/></clipPath></defs><g xml:id="surface1" id="surface1"><g clip-rule="nonzero" clip-path="url(#clip1)"><path style=" stroke:none;fill-rule:nonzero;fill:rgb(89.408875%,30.198669%,14.898682%);fill-opacity:1;" d="M 13.042969 48.558594 L 9.3125 6.535156 L 50.289062 6.535156 L 46.558594 48.550781 L 29.777344 53.226562 Z M 13.042969 48.558594 "/></g><path style=" stroke:none;fill-rule:nonzero;fill:rgb(94.509888%,39.608765%,16.079712%);fill-opacity:1;" d="M 29.800781 49.65625 L 43.363281 45.878906 L 46.550781 9.972656 L 29.800781 9.972656 Z M 29.800781 49.65625 "/><path style=" stroke:none;fill-rule:nonzero;fill:rgb(92.158508%,92.158508%,92.158508%);fill-opacity:1;" d="M 29.800781 25.558594 L 23.011719 25.558594 L 22.542969 20.28125 L 29.800781 20.28125 L 29.800781 15.125 L 16.9375 15.125 L 17.058594 16.507812 L 18.320312 30.710938 L 29.800781 30.710938 Z M 29.800781 38.941406 L 29.777344 38.949219 L 24.066406 37.398438 L 23.699219 33.289062 L 18.550781 33.289062 L 19.269531 41.382812 L 29.777344 44.3125 L 29.800781 44.304688 Z M 29.800781 38.941406 "/><path style=" stroke:none;fill-rule:nonzero;fill:rgb(100%,100%,100%);fill-opacity:1;" d="M 29.785156 25.558594 L 29.785156 30.710938 L 36.101562 30.710938 L 35.503906 37.398438 L 29.78125 38.945312 L 29.78125 44.308594 L 40.296875 41.382812 L 40.375 40.507812 L 41.582031 26.941406 L 41.707031 25.554688 L 40.324219 25.554688 Z M 29.785156 15.125 L 29.785156 20.28125 L 42.175781 20.28125 L 42.277344 19.121094 L 42.511719 16.507812 L 42.632812 15.125 Z M 29.785156 15.125 "/></g></svg>