<?xml version="1.0" encoding="UTF-8"?><svg xmlns="http://www.w3.org/2000/svg" xmlns:xlink="http://www.w3.org/1999/xlink" contentScriptType="text/ecmascript" width="60pt" zoomAndPan="magnify" contentStyleType="text/css" viewBox="0 0 60 60" height="60pt" preserveAspectRatio="xMidYMid meet" version="1.2"><defs><clipPath xml:id="clip1" id="clip1"><path d="M 6.535156 6.535156 L 53.785156 6.535156 L 53.785156 53.785156 L 6.535156 53.785156 Z M 6.535156 6.535156 "/></clipPath></defs><g xml:id="surface1" id="surface1"><g clip-rule="nonzero" clip-path="url(#clip1)"><path style=" stroke:none;fill-rule:nonzero;fill:rgb(96.859741%,87.449646%,11.759949%);fill-opacity:1;" d="M 6.535156 6.535156 L 54.113281 6.535156 L 54.113281 54.113281 L 6.535156 54.113281 Z M 6.535156 6.535156 "/></g><path style=" stroke:none;fill-rule:nonzero;fill:rgb(0%,0%,0%);fill-opacity:1;" d="M 19.042969 46.296875 L 22.6875 44.09375 C 23.386719 45.339844 24.027344 46.390625 25.5625 46.390625 C 27.027344 46.390625 27.957031 45.816406 27.957031 43.582031 L 27.957031 28.378906 L 32.425781 28.378906 L 32.425781 43.644531 C 32.425781 48.273438 29.710938 50.382812 25.753906 50.382812 C 22.175781 50.382812 20.097656 48.53125 19.042969 46.296875 "/><path style=" stroke:none;fill-rule:nonzero;fill:rgb(0%,0%,0%);fill-opacity:1;" d="M 34.855469 45.816406 L 38.496094 43.707031 C 39.457031 45.273438 40.699219 46.421875 42.902344 46.421875 C 44.757812 46.421875 45.9375 45.496094 45.9375 44.21875 C 45.9375 42.6875 44.726562 42.144531 42.679688 41.25 L 41.5625 40.769531 C 38.335938 39.394531 36.199219 37.671875 36.199219 34.03125 C 36.199219 30.675781 38.75 28.121094 42.746094 28.121094 C 45.585938 28.121094 47.632812 29.113281 49.101562 31.699219 L 45.617188 33.933594 C 44.851562 32.5625 44.023438 32.019531 42.746094 32.019531 C 41.433594 32.019531 40.605469 32.851562 40.605469 33.933594 C 40.605469 35.277344 41.433594 35.820312 43.351562 36.652344 L 44.46875 37.128906 C 48.269531 38.757812 50.410156 40.417969 50.410156 44.15625 C 50.410156 48.179688 47.25 50.382812 43 50.382812 C 38.847656 50.382812 36.164062 48.402344 34.855469 45.816406 "/></g></svg>