<?xml version="1.0" encoding="UTF-8"?><svg xmlns="http://www.w3.org/2000/svg" xmlns:xlink="http://www.w3.org/1999/xlink" contentScriptType="text/ecmascript" width="60pt" zoomAndPan="magnify" contentStyleType="text/css" viewBox="0 0 60 60" height="60pt" preserveAspectRatio="xMidYMid meet" version="1.2"><defs><clipPath xml:id="clip1" id="clip1"><path d="M 5 18.613281 L 11 18.613281 L 11 38 L 5 38 Z M 5 18.613281 "/></clipPath><clipPath xml:id="clip2" id="clip2"><path d="M 0.457031 18.613281 L 6 18.613281 L 6 39 L 0.457031 39 Z M 0.457031 18.613281 "/></clipPath><clipPath xml:id="clip3" id="clip3"><path d="M 5 35 L 7 35 L 7 40.847656 L 5 40.847656 Z M 5 35 "/></clipPath><clipPath xml:id="clip4" id="clip4"><path d="M 46 28 L 59.707031 28 L 59.707031 36 L 46 36 Z M 46 28 "/></clipPath></defs><g xml:id="surface1" id="surface1"><g clip-rule="nonzero" clip-path="url(#clip1)"><path style=" stroke:none;fill-rule:nonzero;fill:rgb(34.899902%,58.81958%,21.179199%);fill-opacity:1;" d="M 5.640625 18.695312 L 6.25 19.8125 C 6.382812 20.011719 6.539062 20.199219 6.710938 20.367188 C 7.222656 20.863281 7.710938 21.382812 8.144531 21.941406 C 9.179688 23.261719 9.878906 24.726562 10.378906 26.3125 C 10.675781 27.28125 10.839844 28.273438 10.851562 29.277344 C 10.902344 32.28125 9.839844 34.859375 7.695312 37 C 7.347656 37.34375 6.972656 37.652344 6.574219 37.933594 C 6.363281 37.933594 6.261719 37.769531 6.175781 37.632812 C 6.007812 37.359375 5.914062 37.0625 5.863281 36.757812 C 5.789062 36.398438 5.738281 36.035156 5.761719 35.65625 L 5.761719 35.488281 C 5.75 35.453125 5.5625 18.78125 5.636719 18.695312 Z M 5.640625 18.695312 "/></g><g clip-rule="nonzero" clip-path="url(#clip2)"><path style=" stroke:none;fill-rule:nonzero;fill:rgb(42.349243%,67.449951%,28.239441%);fill-opacity:1;" d="M 5.640625 18.660156 C 5.613281 18.613281 5.589844 18.648438 5.566406 18.671875 C 5.578125 18.914062 5.488281 19.132812 5.351562 19.339844 C 5.203125 19.546875 5.003906 19.703125 4.804688 19.871094 C 3.695312 20.804688 2.820312 21.929688 2.121094 23.1875 C 1.199219 24.882812 0.714844 26.699219 0.578125 28.613281 C 0.515625 29.300781 0.800781 31.734375 1.027344 32.4375 C 1.636719 34.300781 2.734375 35.863281 4.160156 37.21875 C 4.511719 37.546875 4.886719 37.847656 5.273438 38.140625 C 5.382812 38.140625 5.398438 38.042969 5.421875 37.96875 C 5.46875 37.8125 5.507812 37.65625 5.53125 37.496094 C 5.644531 36.890625 5.707031 36.285156 5.78125 35.679688 L 5.644531 18.660156 Z M 5.640625 18.660156 "/></g><g clip-rule="nonzero" clip-path="url(#clip3)"><path style=" stroke:none;fill-rule:nonzero;fill:rgb(76.078796%,74.899292%,74.899292%);fill-opacity:1;" d="M 6.253906 38.671875 C 6.277344 38.394531 6.421875 38.164062 6.5625 37.933594 C 6.414062 37.875 6.300781 37.753906 6.214844 37.617188 C 6.140625 37.496094 6.078125 37.347656 6.027344 37.21875 C 5.851562 36.710938 5.816406 36.179688 5.765625 35.65625 L 5.765625 35.34375 C 5.703125 35.390625 5.691406 35.800781 5.691406 35.863281 C 5.652344 36.417969 5.578125 36.964844 5.464844 37.496094 C 5.429688 37.714844 5.40625 37.933594 5.265625 38.125 C 5.265625 38.152344 5.265625 38.175781 5.28125 38.210938 C 5.503906 38.851562 5.566406 39.507812 5.605469 40.171875 L 5.605469 40.414062 C 5.605469 40.703125 5.59375 40.644531 5.839844 40.742188 C 5.941406 40.777344 6.054688 40.789062 6.152344 40.863281 C 6.226562 40.863281 6.242188 40.800781 6.242188 40.753906 L 6.203125 40.351562 L 6.203125 39.238281 C 6.191406 39.046875 6.226562 38.851562 6.253906 38.671875 Z M 6.253906 38.671875 "/></g><path style=" stroke:none;fill-rule:nonzero;fill:rgb(27.839661%,27.839661%,29.019165%);fill-opacity:1;" d="M 15.722656 33.609375 L 15.722656 34.761719 C 15.722656 34.808594 15.722656 34.851562 15.730469 34.898438 C 15.746094 35.035156 15.832031 35.117188 15.960938 35.15625 C 16.078125 35.1875 16.199219 35.210938 16.320312 35.222656 C 16.390625 35.230469 16.414062 35.261719 16.421875 35.335938 C 16.429688 35.59375 16.40625 35.625 16.148438 35.609375 C 15.546875 35.578125 14.945312 35.570312 14.34375 35.609375 L 14.285156 35.609375 C 14.097656 35.617188 14.082031 35.601562 14.082031 35.417969 C 14.082031 35.386719 14.089844 35.351562 14.089844 35.320312 C 14.089844 35.265625 14.128906 35.238281 14.183594 35.238281 C 14.308594 35.222656 14.425781 35.191406 14.542969 35.167969 C 14.707031 35.128906 14.800781 35.03125 14.816406 34.871094 C 14.839844 34.699219 14.839844 34.515625 14.839844 34.339844 L 14.847656 32.308594 C 14.855469 32.175781 14.796875 32.082031 14.675781 32.019531 C 14.535156 31.945312 14.386719 31.882812 14.230469 31.839844 C 14.183594 31.824219 14.136719 31.816406 14.097656 31.792969 C 13.984375 31.738281 13.980469 31.640625 14.089844 31.578125 C 14.128906 31.558594 14.175781 31.542969 14.222656 31.535156 C 14.699219 31.464844 15.160156 31.351562 15.613281 31.191406 C 15.707031 31.164062 15.730469 31.171875 15.738281 31.261719 C 15.746094 31.316406 15.738281 31.382812 15.730469 31.4375 C 15.714844 31.535156 15.714844 31.632812 15.714844 31.722656 C 15.714844 31.761719 15.722656 31.800781 15.761719 31.824219 C 15.800781 31.847656 15.839844 31.824219 15.878906 31.800781 C 16.042969 31.679688 16.207031 31.566406 16.386719 31.46875 C 16.640625 31.332031 16.917969 31.210938 17.214844 31.171875 C 17.574219 31.125 17.886719 31.21875 18.160156 31.445312 C 18.273438 31.542969 18.371094 31.65625 18.457031 31.777344 C 18.535156 31.890625 18.542969 31.890625 18.644531 31.816406 C 18.941406 31.605469 19.253906 31.414062 19.589844 31.277344 C 19.941406 31.132812 20.300781 31.113281 20.660156 31.230469 C 21.027344 31.359375 21.277344 31.613281 21.425781 31.953125 C 21.554688 32.226562 21.605469 32.507812 21.605469 32.800781 L 21.605469 34.835938 C 21.605469 34.972656 21.664062 35.058594 21.800781 35.125 C 21.949219 35.179688 22.113281 35.207031 22.269531 35.238281 C 22.371094 35.257812 22.371094 35.257812 22.371094 35.359375 C 22.355469 35.609375 22.332031 35.625 22.082031 35.609375 C 21.457031 35.574219 20.828125 35.574219 20.199219 35.609375 C 20.074219 35.617188 20.074219 35.617188 20.066406 35.496094 L 20.066406 35.457031 C 20.058594 35.253906 20.058594 35.253906 20.261719 35.207031 L 20.464844 35.15625 C 20.628906 35.117188 20.707031 35.019531 20.707031 34.859375 L 20.730469 34.289062 L 20.714844 32.804688 C 20.710938 32.667969 20.679688 32.539062 20.628906 32.417969 C 20.433594 31.953125 20.003906 31.785156 19.589844 31.832031 C 19.277344 31.863281 19.003906 31.984375 18.746094 32.160156 C 18.691406 32.195312 18.652344 32.242188 18.660156 32.316406 C 18.730469 32.804688 18.683594 33.289062 18.691406 33.773438 L 18.691406 34.828125 C 18.691406 35.019531 18.769531 35.109375 18.957031 35.15625 L 19.320312 35.230469 C 19.375 35.238281 19.40625 35.261719 19.40625 35.324219 L 19.40625 35.378906 C 19.394531 35.589844 19.382812 35.601562 19.160156 35.597656 C 18.535156 35.566406 17.910156 35.574219 17.292969 35.597656 C 17.082031 35.605469 17.066406 35.582031 17.074219 35.375 C 17.082031 35.253906 17.097656 35.246094 17.214844 35.222656 L 17.472656 35.179688 C 17.703125 35.132812 17.785156 35.050781 17.800781 34.816406 L 17.824219 34.304688 L 17.808594 32.78125 C 17.792969 32.59375 17.75 32.410156 17.644531 32.234375 C 17.488281 31.953125 17.246094 31.8125 16.910156 31.796875 C 16.574219 31.773438 16.277344 31.894531 15.996094 32.046875 C 15.800781 32.15625 15.714844 32.289062 15.730469 32.507812 L 15.730469 33.617188 Z M 30.445312 33.65625 L 30.445312 34.722656 C 30.445312 34.800781 30.453125 34.875 30.460938 34.953125 C 30.46875 35.070312 30.53125 35.140625 30.648438 35.164062 C 30.785156 35.203125 30.921875 35.226562 31.0625 35.234375 C 31.140625 35.242188 31.15625 35.269531 31.164062 35.332031 L 31.164062 35.386719 C 31.15625 35.648438 31.125 35.679688 30.859375 35.664062 C 30.265625 35.628906 29.671875 35.636719 29.078125 35.664062 L 28.847656 35.671875 C 28.800781 35.671875 28.792969 35.652344 28.777344 35.621094 C 28.753906 35.515625 28.753906 35.40625 28.777344 35.300781 C 28.785156 35.257812 28.816406 35.246094 28.863281 35.234375 C 28.980469 35.21875 29.074219 35.195312 29.183594 35.179688 C 29.378906 35.132812 29.449219 35.054688 29.457031 34.859375 L 29.480469 34.222656 L 29.480469 32.355469 C 29.480469 32.21875 29.425781 32.136719 29.300781 32.074219 C 29.160156 32 29.011719 31.945312 28.855469 31.894531 C 28.808594 31.878906 28.761719 31.863281 28.722656 31.839844 C 28.621094 31.769531 28.609375 31.671875 28.707031 31.597656 C 28.753906 31.5625 28.804688 31.539062 28.863281 31.535156 C 29.363281 31.460938 29.847656 31.355469 30.316406 31.171875 C 30.371094 31.148438 30.394531 31.164062 30.417969 31.210938 C 30.441406 31.253906 30.449219 31.308594 30.441406 31.359375 L 30.417969 31.71875 C 30.417969 31.761719 30.394531 31.828125 30.433594 31.847656 C 30.480469 31.875 30.511719 31.808594 30.550781 31.789062 C 30.78125 31.601562 31.035156 31.445312 31.308594 31.320312 C 31.550781 31.210938 31.800781 31.136719 32.082031 31.152344 C 32.605469 31.183594 32.980469 31.441406 33.222656 31.890625 C 33.351562 32.125 33.402344 32.382812 33.425781 32.648438 L 33.449219 33.203125 L 33.457031 34.878906 C 33.464844 35.007812 33.511719 35.09375 33.644531 35.136719 C 33.785156 35.183594 33.925781 35.214844 34.066406 35.238281 C 34.195312 35.253906 34.199219 35.273438 34.207031 35.390625 L 34.207031 35.425781 C 34.191406 35.683594 34.175781 35.691406 33.910156 35.675781 C 33.328125 35.644531 32.742188 35.644531 32.160156 35.675781 C 32.082031 35.683594 32.003906 35.675781 31.933594 35.683594 C 31.886719 35.683594 31.851562 35.675781 31.847656 35.632812 C 31.832031 35.53125 31.816406 35.433594 31.839844 35.328125 C 31.847656 35.28125 31.871094 35.257812 31.921875 35.25 L 32.285156 35.195312 C 32.410156 35.164062 32.480469 35.085938 32.496094 34.972656 L 32.511719 34.761719 L 32.503906 33.175781 C 32.503906 32.992188 32.496094 32.8125 32.457031 32.628906 C 32.363281 32.242188 32.058594 31.964844 31.644531 31.925781 C 31.285156 31.886719 30.957031 31.976562 30.660156 32.167969 C 30.511719 32.257812 30.449219 32.386719 30.449219 32.546875 L 30.449219 33.691406 C 30.449219 33.667969 30.449219 33.667969 30.457031 33.667969 Z M 30.445312 33.65625 "/><g clip-rule="nonzero" clip-path="url(#clip4)"><path style=" stroke:none;fill-rule:nonzero;fill:rgb(76.078796%,74.899292%,74.899292%);fill-opacity:1;" d="M 53.332031 31.507812 C 53.246094 30.953125 53.035156 30.460938 52.667969 30.027344 C 52.34375 29.640625 51.941406 29.351562 51.464844 29.164062 C 50.972656 28.964844 50.449219 28.90625 49.917969 28.890625 C 49.699219 28.882812 46.714844 28.929688 46.492188 28.890625 C 46.4375 28.882812 46.398438 28.898438 46.367188 28.945312 C 46.328125 29 46.289062 29.058594 46.265625 29.117188 C 46.171875 29.324219 46.171875 29.308594 46.398438 29.339844 C 46.585938 29.367188 46.765625 29.382812 46.945312 29.4375 C 47.109375 29.488281 47.226562 29.582031 47.265625 29.753906 C 47.28125 29.839844 47.296875 32.507812 47.296875 33.753906 L 47.265625 34.640625 C 47.257812 34.710938 47.25 34.777344 47.226562 34.839844 C 47.195312 34.929688 47.140625 35.003906 47.046875 35.042969 C 46.945312 35.089844 46.835938 35.117188 46.71875 35.125 C 46.507812 35.148438 46.476562 35.15625 46.40625 35.386719 L 46.382812 35.46875 C 46.367188 35.566406 46.375 35.582031 46.476562 35.582031 L 48.8125 35.605469 L 49.730469 35.589844 L 50.363281 35.511719 C 51.082031 35.382812 51.722656 35.097656 52.269531 34.632812 C 52.585938 34.363281 52.835938 34.042969 53.019531 33.675781 C 53.238281 33.253906 53.332031 32.789062 53.355469 32.320312 C 53.394531 32.054688 53.378906 31.78125 53.332031 31.507812 Z M 52.199219 32.585938 C 52.167969 33.070312 52.066406 33.539062 51.808594 33.964844 C 51.480469 34.519531 51.011719 34.90625 50.363281 35.042969 C 50.082031 35.097656 49.800781 35.125 49.503906 35.085938 C 49.292969 35.066406 49.089844 35.042969 48.894531 34.972656 C 48.542969 34.851562 48.417969 34.640625 48.410156 34.308594 L 48.402344 29.734375 C 48.402344 29.460938 48.527344 29.402344 48.730469 29.390625 C 49.035156 29.371094 49.347656 29.378906 49.652344 29.40625 C 49.980469 29.4375 50.296875 29.511719 50.601562 29.628906 C 50.828125 29.722656 51.03125 29.84375 51.21875 30 C 51.640625 30.351562 51.921875 30.789062 52.074219 31.304688 C 52.199219 31.722656 52.222656 32.148438 52.199219 32.574219 Z M 59.828125 33.328125 C 59.828125 33.28125 59.828125 33.246094 59.820312 33.199219 C 59.75 32.78125 59.523438 32.464844 59.171875 32.222656 C 58.945312 32.0625 58.6875 31.957031 58.421875 31.878906 C 58.375 31.863281 58.335938 31.847656 58.289062 31.84375 C 58.296875 31.804688 58.320312 31.796875 58.34375 31.789062 C 58.5 31.710938 58.648438 31.628906 58.78125 31.515625 C 59.023438 31.320312 59.179688 31.074219 59.265625 30.78125 C 59.3125 30.621094 59.3125 30.460938 59.296875 30.292969 C 59.269531 29.875 59.078125 29.546875 58.726562 29.308594 C 58.367188 29.050781 57.945312 28.941406 57.507812 28.933594 C 56.664062 28.921875 55.8125 28.933594 54.96875 28.933594 C 54.726562 28.933594 54.484375 28.949219 54.234375 28.914062 C 54.1875 28.90625 54.117188 28.890625 54.085938 28.945312 C 54.027344 29.042969 53.957031 29.140625 53.933594 29.253906 C 53.925781 29.308594 53.941406 29.339844 54.003906 29.34375 L 54.546875 29.421875 C 54.757812 29.453125 54.90625 29.566406 54.921875 29.75 C 54.933594 29.875 54.941406 30 54.941406 30.128906 L 54.925781 31.546875 L 54.917969 34.351562 C 54.917969 34.519531 54.898438 34.679688 54.863281 34.84375 C 54.847656 34.964844 54.78125 35.039062 54.660156 35.074219 C 54.503906 35.117188 54.355469 35.164062 54.191406 35.164062 C 54.089844 35.152344 54.023438 35.195312 53.988281 35.292969 C 53.957031 35.359375 53.933594 35.4375 53.917969 35.503906 C 53.902344 35.597656 53.925781 35.628906 54.019531 35.617188 C 54.089844 35.609375 56.671875 35.667969 57.15625 35.625 C 57.445312 35.59375 57.726562 35.554688 58.015625 35.472656 C 58.507812 35.320312 58.960938 35.101562 59.320312 34.726562 C 59.617188 34.425781 59.789062 34.058594 59.804688 33.636719 C 59.828125 33.535156 59.828125 33.4375 59.828125 33.332031 Z M 56.039062 30.21875 L 56.058594 29.613281 C 56.058594 29.5 56.105469 29.445312 56.222656 29.421875 C 56.410156 29.386719 56.597656 29.402344 56.789062 29.410156 C 56.976562 29.421875 57.152344 29.445312 57.34375 29.5 C 57.683594 29.597656 57.953125 29.789062 58.109375 30.105469 C 58.179688 30.253906 58.214844 30.40625 58.21875 30.570312 C 58.226562 30.78125 58.210938 30.988281 58.125 31.191406 C 57.992188 31.472656 57.78125 31.652344 57.476562 31.707031 C 57.167969 31.761719 56.304688 31.738281 56.171875 31.738281 C 56.054688 31.738281 56.042969 31.722656 56.042969 31.609375 L 56.042969 30.894531 C 56.027344 30.671875 56.023438 30.449219 56.035156 30.226562 Z M 58.578125 34.300781 C 58.445312 34.640625 58.203125 34.878906 57.859375 35.003906 C 57.671875 35.074219 57.484375 35.117188 57.285156 35.105469 C 57.042969 35.097656 56.800781 35.105469 56.558594 35.058594 C 56.230469 34.992188 56.082031 34.6875 56.058594 34.46875 C 56.019531 34.082031 56.042969 33.6875 56.035156 33.398438 L 56.035156 32.394531 C 56.035156 32.273438 56.050781 32.238281 56.183594 32.238281 L 56.917969 32.246094 L 57.421875 32.300781 C 57.773438 32.375 58.09375 32.503906 58.34375 32.769531 C 58.546875 32.984375 58.65625 33.242188 58.679688 33.523438 C 58.703125 33.785156 58.6875 34.046875 58.585938 34.296875 Z M 58.578125 34.300781 "/></g><path style=" stroke:none;fill-rule:nonzero;fill:rgb(27.839661%,27.839661%,29.019165%);fill-opacity:1;" d="M 38.722656 32.015625 L 38.925781 32.046875 C 39.144531 32.054688 39.402344 31.976562 39.480469 31.683594 C 39.523438 31.539062 39.523438 31.394531 39.480469 31.25 C 39.433594 31.25 39.410156 31.285156 39.386719 31.300781 C 39.269531 31.394531 39.136719 31.445312 38.996094 31.460938 C 38.714844 31.492188 38.433594 31.476562 38.160156 31.378906 L 37.777344 31.25 C 37.507812 31.164062 37.230469 31.128906 36.945312 31.144531 C 36.546875 31.175781 36.171875 31.304688 35.820312 31.484375 C 35.445312 31.683594 35.179688 31.976562 35.054688 32.382812 C 34.984375 32.617188 34.976562 32.859375 35.007812 33.101562 C 35.085938 33.65625 35.382812 34.042969 35.914062 34.246094 C 35.945312 34.253906 35.96875 34.269531 36 34.277344 C 36.070312 34.316406 36.078125 34.355469 36.015625 34.40625 L 35.820312 34.535156 L 35.351562 34.816406 C 35.234375 34.882812 35.21875 34.9375 35.257812 35.058594 C 35.304688 35.203125 35.386719 35.324219 35.507812 35.421875 C 35.617188 35.511719 35.734375 35.582031 35.867188 35.636719 C 35.953125 35.671875 35.953125 35.691406 35.875 35.757812 L 35.429688 36.066406 C 35.28125 36.179688 35.132812 36.289062 35.007812 36.433594 C 34.820312 36.628906 34.757812 36.855469 34.820312 37.113281 C 34.878906 37.386719 35.015625 37.613281 35.226562 37.796875 C 35.433594 37.984375 35.671875 38.109375 35.945312 38.175781 C 36.382812 38.300781 36.835938 38.304688 37.28125 38.222656 C 37.921875 38.109375 38.480469 37.832031 38.921875 37.367188 C 39.226562 37.054688 39.40625 36.691406 39.421875 36.253906 C 39.441406 35.996094 39.367188 35.761719 39.210938 35.550781 C 39.050781 35.34375 38.839844 35.207031 38.578125 35.148438 L 38.15625 35.070312 L 36.867188 34.960938 C 36.726562 34.953125 36.585938 34.929688 36.46875 34.863281 C 36.320312 34.769531 36.28125 34.597656 36.375 34.484375 C 36.445312 34.398438 36.53125 34.347656 36.640625 34.339844 L 36.890625 34.316406 C 37.398438 34.265625 37.839844 34.070312 38.210938 33.734375 C 38.40625 33.554688 38.539062 33.339844 38.609375 33.085938 C 38.703125 32.761719 38.703125 32.421875 38.625 32.089844 C 38.601562 32.003906 38.609375 31.996094 38.71875 32.011719 Z M 36.804688 35.792969 C 36.851562 35.800781 36.898438 35.792969 36.945312 35.792969 C 37.273438 35.808594 37.613281 35.832031 37.929688 35.917969 C 38.035156 35.945312 38.136719 35.984375 38.238281 36.03125 C 38.550781 36.195312 38.667969 36.484375 38.628906 36.796875 C 38.582031 37.136719 38.382812 37.378906 38.078125 37.539062 C 37.875 37.652344 37.648438 37.699219 37.414062 37.722656 C 37.328125 37.730469 37.25 37.722656 37.164062 37.722656 C 36.890625 37.730469 36.625 37.699219 36.367188 37.59375 C 36.1875 37.523438 36.039062 37.425781 35.90625 37.289062 C 35.632812 37.023438 35.507812 36.539062 35.914062 36.144531 C 36.164062 35.921875 36.445312 35.765625 36.804688 35.792969 Z M 37.695312 33.425781 C 37.53125 33.828125 37.171875 33.949219 36.8125 33.898438 C 36.484375 33.851562 36.242188 33.675781 36.089844 33.390625 C 35.886719 33.003906 35.832031 32.601562 35.949219 32.183594 C 36.03125 31.871094 36.230469 31.636719 36.574219 31.582031 C 37.011719 31.507812 37.429688 31.660156 37.652344 32.082031 C 37.765625 32.289062 37.816406 32.539062 37.816406 32.894531 C 37.808594 33.039062 37.777344 33.238281 37.699219 33.425781 Z M 27.851562 32.910156 C 27.78125 32.5 27.625 32.128906 27.335938 31.820312 C 26.90625 31.355469 26.359375 31.152344 25.742188 31.152344 C 25.203125 31.144531 24.695312 31.296875 24.242188 31.566406 C 23.777344 31.835938 23.472656 32.222656 23.324219 32.730469 C 23.195312 33.167969 23.199219 33.617188 23.304688 34.0625 C 23.578125 35.261719 24.53125 35.777344 25.671875 35.703125 C 26.007812 35.679688 26.328125 35.574219 26.632812 35.429688 C 27.085938 35.222656 27.414062 34.898438 27.640625 34.464844 C 27.820312 34.109375 27.898438 33.730469 27.890625 33.296875 Z M 26.742188 34.59375 C 26.617188 34.976562 26.347656 35.191406 25.9375 35.230469 C 25.59375 35.277344 25.273438 35.195312 24.984375 34.996094 C 24.773438 34.847656 24.609375 34.65625 24.492188 34.429688 C 24.171875 33.789062 24.117188 33.125 24.28125 32.441406 C 24.332031 32.226562 24.441406 32.039062 24.609375 31.886719 C 24.898438 31.628906 25.234375 31.566406 25.609375 31.644531 C 25.96875 31.71875 26.242188 31.910156 26.464844 32.199219 C 26.691406 32.488281 26.792969 32.820312 26.855469 33.167969 C 26.886719 33.34375 26.886719 33.527344 26.894531 33.640625 C 26.894531 34.003906 26.863281 34.304688 26.746094 34.59375 Z M 44.925781 32.972656 C 44.871094 32.53125 44.699219 32.128906 44.378906 31.796875 C 43.957031 31.347656 43.410156 31.160156 42.800781 31.152344 C 42.277344 31.144531 41.792969 31.289062 41.347656 31.539062 C 40.847656 31.828125 40.503906 32.234375 40.371094 32.789062 C 40.207031 33.414062 40.269531 34.015625 40.558594 34.59375 C 40.816406 35.125 41.253906 35.46875 41.832031 35.621094 C 42.472656 35.785156 43.082031 35.710938 43.675781 35.429688 C 44.191406 35.1875 44.558594 34.808594 44.769531 34.292969 C 44.894531 33.988281 44.941406 33.660156 44.949219 33.28125 C 44.957031 33.214844 44.941406 33.09375 44.925781 32.972656 Z M 43.847656 34.496094 C 43.722656 34.90625 43.457031 35.171875 43.011719 35.234375 C 42.683594 35.277344 42.371094 35.203125 42.089844 35.019531 C 41.847656 34.859375 41.675781 34.648438 41.550781 34.398438 C 41.410156 34.132812 41.332031 33.851562 41.300781 33.5625 C 41.253906 33.207031 41.253906 32.859375 41.339844 32.503906 C 41.355469 32.433594 41.378906 32.363281 41.410156 32.296875 C 41.628906 31.765625 42.113281 31.523438 42.683594 31.644531 C 43.066406 31.730469 43.355469 31.933594 43.574219 32.246094 C 43.785156 32.546875 43.886719 32.882812 43.933594 33.242188 C 43.957031 33.386719 43.964844 33.539062 43.957031 33.667969 C 43.957031 33.964844 43.933594 34.238281 43.84375 34.503906 Z M 43.847656 34.496094 "/></g></svg>