<?xml version="1.0" encoding="UTF-8"?><svg xmlns="http://www.w3.org/2000/svg" xmlns:xlink="http://www.w3.org/1999/xlink" contentScriptType="text/ecmascript" width="60pt" zoomAndPan="magnify" contentStyleType="text/css" viewBox="0 0 60 60" height="60pt" preserveAspectRatio="xMidYMid meet" version="1.2"><defs><clipPath xml:id="clip1" id="clip1"><path d="M 50 27 L 59.707031 27 L 59.707031 38.761719 L 50 38.761719 Z M 50 27 "/></clipPath><clipPath xml:id="clip2" id="clip2"><path d="M 0.457031 21.511719 L 48 21.511719 L 48 38.761719 L 0.457031 38.761719 Z M 0.457031 21.511719 "/></clipPath><clipPath xml:id="clip3" id="clip3"><path d="M 12 27 L 44 27 L 44 38.761719 L 12 38.761719 Z M 12 27 "/></clipPath></defs><g xml:id="surface1" id="surface1"><g clip-rule="nonzero" clip-path="url(#clip1)"><path style=" stroke:none;fill-rule:nonzero;fill:rgb(51.368713%,80.389404%,16.079712%);fill-opacity:1;" d="M 55.117188 27.75 C 54.972656 27.75 54.832031 27.78125 54.707031 27.851562 L 50.765625 30.191406 C 50.511719 30.339844 50.355469 30.625 50.355469 30.929688 L 50.355469 35.597656 C 50.355469 35.902344 50.511719 36.183594 50.765625 36.335938 L 51.796875 36.945312 C 52.296875 37.199219 52.480469 37.195312 52.707031 37.195312 C 53.449219 37.195312 53.871094 36.734375 53.871094 35.929688 L 53.871094 31.328125 C 53.871094 31.261719 53.816406 31.214844 53.753906 31.214844 L 53.257812 31.214844 C 53.195312 31.214844 53.140625 31.261719 53.140625 31.328125 L 53.140625 35.933594 C 53.140625 36.289062 52.78125 36.648438 52.199219 36.347656 L 51.128906 35.703125 C 51.089844 35.679688 51.0625 35.640625 51.0625 35.597656 L 51.0625 30.929688 C 51.0625 30.886719 51.089844 30.839844 51.128906 30.820312 L 55.058594 28.488281 C 55.097656 28.46875 55.140625 28.46875 55.175781 28.488281 L 59.105469 30.820312 C 59.144531 30.84375 59.175781 30.886719 59.175781 30.929688 L 59.175781 35.597656 C 59.175781 35.644531 59.152344 35.6875 59.117188 35.710938 L 55.175781 38.039062 C 55.140625 38.058594 55.09375 38.058594 55.058594 38.039062 L 54.046875 37.421875 C 54.015625 37.402344 53.976562 37.402344 53.945312 37.421875 C 53.667969 37.582031 53.613281 37.601562 53.351562 37.695312 C 53.289062 37.71875 53.191406 37.753906 53.386719 37.867188 L 54.707031 38.667969 C 54.832031 38.742188 54.972656 38.78125 55.117188 38.78125 C 55.265625 38.78125 55.402344 38.742188 55.527344 38.667969 L 59.46875 36.339844 C 59.722656 36.1875 59.875 35.902344 59.875 35.597656 L 59.875 30.933594 C 59.875 30.628906 59.722656 30.34375 59.46875 30.191406 L 55.527344 27.855469 C 55.402344 27.78125 55.261719 27.75 55.117188 27.75 Z M 56.171875 31.085938 C 55.046875 31.085938 54.378906 31.574219 54.378906 32.390625 C 54.378906 33.273438 55.042969 33.519531 56.121094 33.628906 C 57.40625 33.757812 57.507812 33.953125 57.507812 34.214844 C 57.507812 34.664062 57.15625 34.859375 56.328125 34.859375 C 55.289062 34.859375 55.058594 34.589844 54.984375 34.058594 C 54.972656 34 54.929688 33.953125 54.875 33.953125 L 54.363281 33.953125 C 54.285156 33.957031 54.246094 33.996094 54.246094 34.074219 C 54.246094 34.757812 54.605469 35.5625 56.328125 35.5625 C 57.574219 35.5625 58.292969 35.058594 58.292969 34.179688 C 58.292969 33.304688 57.710938 33.070312 56.503906 32.90625 C 55.28125 32.738281 55.164062 32.660156 55.164062 32.363281 C 55.164062 32.121094 55.265625 31.796875 56.167969 31.796875 C 56.976562 31.796875 57.277344 31.976562 57.398438 32.535156 C 57.410156 32.589844 57.453125 32.632812 57.507812 32.632812 L 58.019531 32.632812 C 58.050781 32.632812 58.082031 32.613281 58.101562 32.589844 C 58.125 32.5625 58.140625 32.535156 58.136719 32.503906 C 58.058594 31.539062 57.429688 31.085938 56.171875 31.085938 Z M 56.171875 31.085938 "/></g><g clip-rule="nonzero" clip-path="url(#clip2)"><path style=" stroke:none;fill-rule:nonzero;fill:rgb(25.099182%,25.489807%,21.569824%);fill-opacity:1;" d="M 31.957031 21.632812 C 31.914062 21.632812 31.871094 21.644531 31.832031 21.664062 C 31.75 21.714844 31.707031 21.789062 31.707031 21.890625 L 31.707031 28.464844 C 31.707031 28.527344 31.675781 28.585938 31.621094 28.621094 C 31.5625 28.65625 31.503906 28.65625 31.445312 28.621094 L 30.402344 28 C 30.234375 27.902344 30.066406 27.902344 29.898438 28 L 25.726562 30.476562 C 25.570312 30.566406 25.476562 30.746094 25.476562 30.929688 L 25.476562 35.882812 C 25.476562 36.082031 25.558594 36.230469 25.726562 36.328125 L 29.898438 38.804688 C 30.066406 38.90625 30.234375 38.90625 30.402344 38.804688 L 34.574219 36.328125 C 34.742188 36.230469 34.828125 36.082031 34.828125 35.882812 L 34.828125 23.539062 C 34.828125 23.351562 34.726562 23.175781 34.566406 23.082031 L 32.082031 21.65625 C 32.042969 21.632812 32 21.628906 31.957031 21.628906 Z M 5.109375 27.8125 C 5.03125 27.816406 4.957031 27.828125 4.882812 27.871094 L 0.710938 30.347656 C 0.542969 30.445312 0.460938 30.59375 0.460938 30.792969 L 0.46875 37.4375 C 0.46875 37.53125 0.515625 37.617188 0.59375 37.660156 C 0.671875 37.710938 0.769531 37.710938 0.84375 37.660156 L 3.320312 36.199219 C 3.476562 36.105469 3.578125 35.9375 3.578125 35.753906 L 3.578125 32.648438 C 3.578125 32.464844 3.675781 32.296875 3.832031 32.203125 L 4.882812 31.574219 C 4.960938 31.53125 5.046875 31.507812 5.136719 31.507812 C 5.226562 31.507812 5.308594 31.53125 5.386719 31.574219 L 6.441406 32.203125 C 6.597656 32.296875 6.691406 32.464844 6.691406 32.648438 L 6.691406 35.753906 C 6.691406 35.9375 6.796875 36.105469 6.949219 36.199219 L 9.425781 37.660156 C 9.503906 37.707031 9.597656 37.707031 9.675781 37.660156 C 9.753906 37.617188 9.800781 37.53125 9.800781 37.4375 L 9.808594 30.792969 C 9.8125 30.59375 9.726562 30.445312 9.558594 30.347656 L 5.386719 27.871094 C 5.316406 27.828125 5.242188 27.816406 5.160156 27.8125 Z M 42.613281 27.871094 C 42.523438 27.871094 42.4375 27.894531 42.359375 27.941406 L 38.1875 30.414062 C 38.03125 30.507812 37.9375 30.675781 37.9375 30.863281 L 37.9375 35.8125 C 37.9375 36 38.039062 36.167969 38.195312 36.261719 L 42.335938 38.683594 C 42.488281 38.773438 42.675781 38.78125 42.828125 38.695312 L 45.339844 37.257812 C 45.417969 37.210938 45.472656 37.128906 45.472656 37.035156 C 45.472656 36.941406 45.425781 36.859375 45.347656 36.8125 L 41.148438 34.335938 C 41.070312 34.289062 41.015625 34.195312 41.015625 34.105469 L 41.015625 32.554688 C 41.015625 32.464844 41.070312 32.378906 41.148438 32.332031 L 42.453125 31.558594 C 42.53125 31.511719 42.625 31.511719 42.703125 31.558594 L 44.011719 32.332031 C 44.09375 32.382812 44.136719 32.457031 44.136719 32.554688 L 44.136719 33.777344 C 44.136719 33.875 44.179688 33.949219 44.261719 34 C 44.339844 34.046875 44.433594 34.046875 44.511719 34 L 47.011719 32.503906 C 47.167969 32.410156 47.265625 32.242188 47.265625 32.058594 L 47.265625 30.863281 C 47.265625 30.664062 47.179688 30.515625 47.015625 30.414062 L 42.867188 27.941406 C 42.789062 27.894531 42.703125 27.871094 42.613281 27.871094 Z M 30.132812 31.566406 C 30.15625 31.566406 30.179688 31.574219 30.199219 31.585938 L 31.628906 32.4375 C 31.667969 32.457031 31.699219 32.5 31.699219 32.546875 L 31.699219 34.25 C 31.699219 34.296875 31.667969 34.339844 31.628906 34.359375 L 30.199219 35.210938 C 30.160156 35.234375 30.113281 35.234375 30.074219 35.210938 L 28.644531 34.359375 C 28.605469 34.335938 28.578125 34.296875 28.578125 34.25 L 28.578125 32.546875 C 28.578125 32.5 28.605469 32.460938 28.644531 32.4375 L 30.074219 31.585938 C 30.09375 31.574219 30.113281 31.566406 30.132812 31.566406 Z M 30.132812 31.566406 "/></g><g clip-rule="nonzero" clip-path="url(#clip3)"><path style=" stroke:none;fill-rule:nonzero;fill:rgb(51.368713%,80.389404%,16.079712%);fill-opacity:1;" d="M 17.648438 27.84375 C 17.558594 27.84375 17.472656 27.867188 17.394531 27.914062 L 13.222656 30.382812 C 13.066406 30.472656 12.972656 30.652344 12.972656 30.835938 L 12.972656 35.789062 C 12.972656 35.988281 13.054688 36.136719 13.222656 36.234375 L 17.394531 38.710938 C 17.5625 38.808594 17.730469 38.808594 17.898438 38.710938 L 22.070312 36.234375 C 22.238281 36.136719 22.320312 35.984375 22.320312 35.789062 L 22.320312 30.835938 C 22.320312 30.652344 22.226562 30.472656 22.070312 30.382812 L 17.898438 27.914062 C 17.820312 27.867188 17.734375 27.84375 17.644531 27.847656 Z M 42.605469 32.261719 C 42.585938 32.261719 42.570312 32.261719 42.554688 32.273438 L 41.75 32.753906 C 41.71875 32.773438 41.703125 32.800781 41.699219 32.839844 L 41.699219 33.785156 C 41.699219 33.820312 41.722656 33.851562 41.75 33.871094 L 42.554688 34.34375 C 42.585938 34.363281 42.613281 34.363281 42.644531 34.34375 L 43.449219 33.871094 C 43.476562 33.851562 43.5 33.820312 43.5 33.785156 L 43.5 32.839844 C 43.5 32.804688 43.476562 32.769531 43.449219 32.753906 L 42.644531 32.273438 C 42.628906 32.261719 42.621094 32.261719 42.605469 32.261719 Z M 42.605469 32.261719 "/></g></g></svg>