<?xml version="1.0" encoding="UTF-8"?><svg xmlns="http://www.w3.org/2000/svg" xmlns:xlink="http://www.w3.org/1999/xlink" contentScriptType="text/ecmascript" width="60pt" zoomAndPan="magnify" contentStyleType="text/css" viewBox="0 0 60 60" height="60pt" preserveAspectRatio="xMidYMid meet" version="1.2"><g xml:id="surface1" id="surface1"><path style=" stroke:none;fill-rule:nonzero;fill:rgb(95.289612%,41.178894%,19.999695%);fill-opacity:1;" d="M 42.9375 19.078125 C 42.867188 19.128906 42.824219 19.207031 42.824219 19.292969 C 42.824219 19.324219 42.828125 19.347656 42.835938 19.371094 C 42.886719 19.472656 42.917969 19.589844 42.917969 19.714844 C 42.917969 19.902344 42.851562 20.074219 42.734375 20.210938 L 42.738281 20.207031 C 42.703125 20.253906 42.683594 20.308594 42.683594 20.371094 C 42.683594 20.453125 42.722656 20.527344 42.78125 20.574219 C 42.824219 20.609375 42.878906 20.628906 42.9375 20.628906 C 43.015625 20.628906 43.085938 20.59375 43.136719 20.539062 C 43.320312 20.316406 43.433594 20.027344 43.433594 19.714844 C 43.433594 19.503906 43.382812 19.3125 43.296875 19.136719 C 43.25 19.070312 43.171875 19.027344 43.085938 19.027344 C 43.03125 19.027344 42.980469 19.046875 42.9375 19.078125 Z M 42.9375 19.078125 "/><path style=" stroke:none;fill-rule:nonzero;fill:rgb(95.289612%,41.178894%,19.999695%);fill-opacity:1;" d="M 43.296875 19.136719 L 43.292969 19.128906 Z M 43.296875 19.136719 "/><path style=" stroke:none;fill-rule:nonzero;fill:rgb(95.289612%,41.178894%,19.999695%);fill-opacity:1;" d="M 33.007812 7.992188 C 20.765625 6.421875 9.5625 15.074219 7.992188 27.320312 C 6.421875 39.5625 15.070312 50.765625 27.316406 52.335938 C 39.5625 53.90625 50.769531 45.253906 52.335938 33.007812 C 53.910156 20.765625 45.257812 9.5625 33.007812 7.992188 Z M 37.613281 21.9375 C 37.179688 21.941406 36.792969 22.121094 36.507812 22.402344 L 28.210938 30.699219 L 26.441406 28.929688 C 34.617188 20.777344 36.09375 20.699219 37.613281 21.9375 Z M 28.550781 30.992188 L 36.824219 22.722656 C 37.035156 22.5 37.332031 22.363281 37.660156 22.363281 C 38.296875 22.363281 38.816406 22.882812 38.816406 23.519531 C 38.816406 23.871094 38.65625 24.191406 38.40625 24.402344 L 38.402344 24.402344 L 29.648438 32.089844 Z M 29.167969 32.285156 L 27.117188 32.730469 C 27.109375 32.730469 27.101562 32.730469 27.09375 32.730469 C 27.050781 32.730469 27.011719 32.707031 26.992188 32.671875 C 26.984375 32.652344 26.976562 32.632812 26.976562 32.613281 C 26.976562 32.582031 26.992188 32.554688 27.011719 32.535156 L 28.214844 31.332031 Z M 23.945312 31.429688 L 26.128906 29.246094 L 27.765625 30.882812 L 24.078125 31.675781 C 24.066406 31.679688 24.058594 31.679688 24.042969 31.679688 C 23.988281 31.679688 23.941406 31.648438 23.921875 31.605469 C 23.90625 31.582031 23.898438 31.558594 23.898438 31.53125 C 23.898438 31.492188 23.917969 31.457031 23.945312 31.429688 Z M 17.152344 42.714844 C 17.078125 42.710938 17.023438 42.652344 17.023438 42.574219 C 17.023438 42.570312 17.023438 42.566406 17.023438 42.5625 C 17.027344 42.527344 17.042969 42.496094 17.066406 42.476562 L 18.832031 40.714844 L 21.109375 42.988281 Z M 21.671875 40.378906 C 21.53125 40.449219 21.441406 40.59375 21.441406 40.753906 C 21.441406 40.792969 21.445312 40.824219 21.453125 40.859375 L 21.453125 40.855469 L 21.832031 42.464844 C 21.835938 42.484375 21.839844 42.5 21.839844 42.523438 C 21.839844 42.652344 21.734375 42.753906 21.605469 42.753906 C 21.542969 42.753906 21.480469 42.730469 21.4375 42.683594 L 21.433594 42.683594 L 19.144531 40.394531 L 26.15625 33.394531 L 29.546875 32.660156 L 31.175781 34.289062 C 28.835938 36.34375 25.636719 38.390625 21.671875 40.378906 Z M 31.503906 33.992188 L 31.5 33.992188 L 29.9375 32.429688 L 38.695312 24.742188 C 38.773438 24.667969 38.847656 24.59375 38.910156 24.507812 L 38.914062 24.503906 C 38.640625 27.011719 35.136719 30.550781 31.503906 33.992188 Z M 40.714844 22.945312 C 39.777344 22.945312 38.933594 22.566406 38.320312 21.957031 L 38.316406 21.953125 C 37.703125 21.339844 37.324219 20.492188 37.324219 19.558594 C 37.324219 17.683594 38.847656 16.164062 40.71875 16.164062 C 41.550781 16.164062 42.3125 16.460938 42.898438 16.957031 L 42.894531 16.953125 L 39.894531 19.957031 C 39.855469 20 39.828125 20.054688 39.828125 20.113281 C 39.828125 20.175781 39.855469 20.230469 39.894531 20.269531 L 42.21875 22.59375 C 41.777344 22.816406 41.261719 22.945312 40.714844 22.945312 Z M 43.125 21.957031 C 42.972656 22.105469 42.808594 22.238281 42.628906 22.355469 L 42.617188 22.363281 L 40.367188 20.113281 L 43.222656 17.257812 C 44.457031 18.597656 44.410156 20.667969 43.125 21.957031 Z M 43.125 21.957031 "/></g></svg>