<?xml version="1.0" encoding="UTF-8"?><svg xmlns="http://www.w3.org/2000/svg" xmlns:xlink="http://www.w3.org/1999/xlink" contentScriptType="text/ecmascript" width="60pt" zoomAndPan="magnify" contentStyleType="text/css" viewBox="0 0 60 60" height="60pt" preserveAspectRatio="xMidYMid meet" version="1.2"><defs><clipPath xml:id="clip1" id="clip1"><path d="M 4.613281 7 L 55.613281 7 L 55.613281 53.753906 L 4.613281 53.753906 Z M 4.613281 7 "/></clipPath></defs><g xml:id="surface1" id="surface1"><g clip-rule="nonzero" clip-path="url(#clip1)"><path style=" stroke:none;fill-rule:nonzero;fill:rgb(0%,84.709167%,100%);fill-opacity:1;" d="M 46.703125 22.242188 C 46.175781 22.058594 45.625 21.886719 45.058594 21.722656 C 45.152344 21.34375 45.238281 20.96875 45.3125 20.597656 C 46.558594 14.535156 45.746094 9.652344 42.960938 8.046875 C 40.292969 6.503906 35.933594 8.113281 31.527344 11.953125 C 31.101562 12.324219 30.675781 12.714844 30.253906 13.125 C 29.96875 12.855469 29.6875 12.589844 29.40625 12.339844 C 24.789062 8.230469 20.160156 6.5 17.382812 8.113281 C 14.71875 9.660156 13.929688 14.25 15.050781 19.992188 C 15.15625 20.550781 15.285156 21.117188 15.425781 21.691406 C 14.773438 21.878906 14.140625 22.078125 13.535156 22.289062 C 8.121094 24.179688 4.664062 27.144531 4.664062 30.21875 C 4.664062 33.394531 8.375 36.582031 14.015625 38.511719 C 14.460938 38.664062 14.921875 38.808594 15.398438 38.945312 C 15.242188 39.566406 15.109375 40.179688 14.996094 40.773438 C 13.925781 46.417969 14.761719 50.902344 17.417969 52.4375 C 20.164062 54.023438 24.769531 52.390625 29.257812 48.464844 C 29.613281 48.152344 29.96875 47.824219 30.324219 47.476562 C 30.789062 47.921875 31.25 48.34375 31.707031 48.742188 C 36.050781 52.488281 40.34375 54 43 52.460938 C 45.742188 50.871094 46.632812 46.054688 45.476562 40.199219 C 45.386719 39.75 45.285156 39.292969 45.167969 38.828125 C 45.492188 38.734375 45.8125 38.632812 46.121094 38.53125 C 51.980469 36.582031 55.796875 33.4375 55.796875 30.21875 C 55.796875 27.132812 52.226562 24.148438 46.703125 22.242188 Z M 45.433594 36.453125 C 45.152344 36.542969 44.867188 36.632812 44.574219 36.722656 C 43.925781 34.667969 43.054688 32.484375 41.984375 30.230469 C 43.003906 28.027344 43.84375 25.871094 44.472656 23.832031 C 44.996094 23.984375 45.503906 24.144531 45.992188 24.3125 C 50.722656 25.945312 53.609375 28.359375 53.609375 30.21875 C 53.609375 32.199219 50.496094 34.769531 45.433594 36.453125 Z M 43.332031 40.621094 C 43.84375 43.210938 43.917969 45.554688 43.578125 47.386719 C 43.273438 49.03125 42.660156 50.128906 41.902344 50.566406 C 40.292969 51.5 36.847656 50.285156 33.132812 47.082031 C 32.703125 46.714844 32.273438 46.320312 31.84375 45.90625 C 33.285156 44.328125 34.726562 42.492188 36.132812 40.453125 C 38.601562 40.234375 40.9375 39.875 43.054688 39.382812 C 43.160156 39.804688 43.253906 40.21875 43.332031 40.621094 Z M 22.097656 50.40625 C 20.523438 50.964844 19.269531 50.980469 18.511719 50.539062 C 16.898438 49.609375 16.226562 46.007812 17.140625 41.183594 C 17.246094 40.628906 17.371094 40.0625 17.515625 39.480469 C 19.609375 39.945312 21.929688 40.28125 24.40625 40.480469 C 25.820312 42.476562 27.300781 44.308594 28.792969 45.914062 C 28.46875 46.230469 28.144531 46.53125 27.820312 46.8125 C 25.835938 48.554688 23.847656 49.785156 22.097656 50.40625 Z M 14.722656 36.441406 C 12.226562 35.585938 10.167969 34.476562 8.757812 33.265625 C 7.488281 32.175781 6.851562 31.097656 6.851562 30.21875 C 6.851562 28.355469 9.625 25.972656 14.253906 24.355469 C 14.816406 24.160156 15.40625 23.972656 16.015625 23.800781 C 16.65625 25.886719 17.492188 28.066406 18.507812 30.269531 C 17.480469 32.507812 16.628906 34.726562 15.984375 36.835938 C 15.546875 36.710938 15.128906 36.578125 14.722656 36.441406 Z M 17.195312 19.574219 C 16.234375 14.652344 16.871094 10.9375 18.476562 10.007812 C 20.1875 9.015625 23.96875 10.429688 27.957031 13.976562 C 28.210938 14.203125 28.46875 14.441406 28.726562 14.6875 C 27.238281 16.285156 25.769531 18.105469 24.367188 20.089844 C 21.964844 20.3125 19.660156 20.671875 17.546875 21.152344 C 17.414062 20.617188 17.292969 20.089844 17.195312 19.574219 Z M 39.246094 25.03125 C 38.742188 24.15625 38.222656 23.300781 37.695312 22.46875 C 39.324219 22.675781 40.886719 22.949219 42.355469 23.285156 C 41.917969 24.703125 41.367188 26.179688 40.71875 27.699219 C 40.257812 26.816406 39.765625 25.925781 39.246094 25.03125 Z M 30.253906 16.25 C 31.261719 17.347656 32.269531 18.566406 33.265625 19.890625 C 32.261719 19.84375 31.25 19.820312 30.230469 19.820312 C 29.21875 19.820312 28.214844 19.84375 27.21875 19.890625 C 28.210938 18.578125 29.230469 17.359375 30.253906 16.25 Z M 21.203125 25.046875 C 20.699219 25.925781 20.214844 26.808594 19.757812 27.695312 C 19.125 26.183594 18.578125 24.699219 18.136719 23.261719 C 19.59375 22.933594 21.148438 22.667969 22.769531 22.464844 C 22.234375 23.304688 21.710938 24.164062 21.203125 25.046875 Z M 22.816406 38.128906 C 21.140625 37.941406 19.5625 37.6875 18.105469 37.371094 C 18.554688 35.90625 19.113281 34.390625 19.761719 32.84375 C 20.21875 33.730469 20.703125 34.617188 21.210938 35.496094 C 21.730469 36.394531 22.265625 37.269531 22.816406 38.128906 Z M 30.3125 44.339844 C 29.28125 43.21875 28.246094 41.980469 27.238281 40.648438 C 28.21875 40.6875 29.214844 40.707031 30.230469 40.707031 C 31.273438 40.707031 32.304688 40.683594 33.316406 40.640625 C 32.320312 41.996094 31.316406 43.238281 30.3125 44.339844 Z M 40.738281 32.765625 C 41.421875 34.328125 42 35.839844 42.457031 37.273438 C 40.976562 37.613281 39.375 37.886719 37.6875 38.089844 C 38.21875 37.246094 38.742188 36.375 39.257812 35.480469 C 39.777344 34.578125 40.273438 33.671875 40.738281 32.765625 Z M 37.363281 34.390625 C 36.566406 35.777344 35.746094 37.101562 34.910156 38.355469 C 33.394531 38.460938 31.828125 38.519531 30.230469 38.519531 C 28.636719 38.519531 27.089844 38.46875 25.601562 38.371094 C 24.734375 37.105469 23.894531 35.777344 23.101562 34.402344 C 22.308594 33.03125 21.582031 31.644531 20.921875 30.269531 C 21.582031 28.894531 22.308594 27.507812 23.09375 26.140625 C 23.882812 24.769531 24.714844 23.445312 25.574219 22.183594 C 27.09375 22.070312 28.652344 22.007812 30.230469 22.007812 C 31.8125 22.007812 33.375 22.070312 34.894531 22.1875 C 35.742188 23.4375 36.566406 24.757812 37.359375 26.128906 C 38.160156 27.515625 38.894531 28.890625 39.5625 30.242188 C 38.898438 31.613281 38.164062 33 37.363281 34.390625 Z M 41.871094 9.941406 C 43.582031 10.929688 44.25 14.921875 43.171875 20.15625 C 43.105469 20.488281 43.027344 20.828125 42.941406 21.175781 C 40.820312 20.683594 38.519531 20.320312 36.109375 20.09375 C 34.703125 18.085938 33.246094 16.265625 31.785156 14.6875 C 32.175781 14.308594 32.570312 13.945312 32.960938 13.605469 C 36.734375 10.3125 40.265625 9.011719 41.871094 9.941406 Z M 30.230469 25.640625 C 32.75 25.640625 34.796875 27.691406 34.796875 30.21875 C 34.796875 32.746094 32.75 34.792969 30.230469 34.792969 C 27.710938 34.792969 25.664062 32.746094 25.664062 30.21875 C 25.664062 27.691406 27.710938 25.640625 30.230469 25.640625 Z M 30.230469 25.640625 "/></g></g></svg>