<?xml version="1.0" encoding="UTF-8"?><svg xmlns="http://www.w3.org/2000/svg" xmlns:xlink="http://www.w3.org/1999/xlink" contentScriptType="text/ecmascript" width="60pt" zoomAndPan="magnify" contentStyleType="text/css" viewBox="0 0 60 60" height="60pt" preserveAspectRatio="xMidYMid meet" version="1.2"><defs><clipPath xml:id="clip1" id="clip1"><path d="M 40 7 L 52.328125 7 L 52.328125 53 L 40 53 Z M 40 7 "/></clipPath></defs><g xml:id="surface1" id="surface1"><g clip-rule="nonzero" clip-path="url(#clip1)"><path style=" stroke:none;fill-rule:nonzero;fill:rgb(16.079712%,71.369934%,96.469116%);fill-opacity:1;" d="M 52.328125 15.191406 L 52.328125 44.707031 C 52.328125 46.160156 51.4375 47.453125 50.09375 47.933594 L 40.132812 52.671875 L 41.039062 40.253906 L 41.039062 19.644531 L 40.132812 7.222656 L 50.09375 11.964844 C 51.4375 12.445312 52.328125 13.738281 52.328125 15.191406 Z M 52.328125 15.191406 "/></g><path style=" stroke:none;fill-rule:nonzero;fill:rgb(0.779724%,46.669006%,74.119568%);fill-opacity:1;" d="M 12.808594 41.277344 L 41.039062 19.644531 L 41.039062 8.601562 C 41.039062 7.230469 39.363281 6.589844 38.46875 7.617188 L 7.90625 35.945312 C 6.890625 36.898438 6.949219 38.542969 8.027344 39.417969 C 8.027344 39.417969 9.523438 40.828125 10.0625 41.21875 C 10.894531 41.820312 11.988281 41.890625 12.808594 41.277344 Z M 12.808594 41.277344 "/><path style=" stroke:none;fill-rule:nonzero;fill:rgb(0.779724%,53.329468%,81.959534%);fill-opacity:1;" d="M 12.808594 18.621094 L 41.039062 40.253906 L 41.039062 51.296875 C 41.039062 52.667969 39.363281 53.308594 38.46875 52.28125 L 7.90625 23.953125 C 6.890625 23 6.949219 21.355469 8.027344 20.480469 C 8.027344 20.480469 9.523438 19.070312 10.0625 18.679688 C 10.894531 18.078125 11.988281 18.007812 12.808594 18.621094 Z M 12.808594 18.621094 "/></g></svg>