<?xml version="1.0" encoding="UTF-8"?><svg xmlns="http://www.w3.org/2000/svg" xmlns:xlink="http://www.w3.org/1999/xlink" contentScriptType="text/ecmascript" width="300pt" zoomAndPan="magnify" contentStyleType="text/css" viewBox="0 0 300 225" height="225pt" preserveAspectRatio="xMidYMid meet" version="1.2"><defs><clipPath xml:id="clip1" id="clip1"><path d="M 39.046875 70 L 57 70 L 57 81 L 39.046875 81 Z M 39.046875 70 "/></clipPath><clipPath xml:id="clip2" id="clip2"><path d="M 39.046875 75 L 57 75 L 57 81 L 39.046875 81 Z M 39.046875 75 "/></clipPath><clipPath xml:id="clip3" id="clip3"><path d="M 39.046875 73 L 46 73 L 46 78 L 39.046875 78 Z M 39.046875 73 "/></clipPath><clipPath xml:id="clip4" id="clip4"><path d="M 39.046875 75 L 46 75 L 46 78 L 39.046875 78 Z M 39.046875 75 "/></clipPath><clipPath xml:id="clip5" id="clip5"><path d="M 39.046875 101 L 261 101 L 261 123 L 39.046875 123 Z M 39.046875 101 "/></clipPath></defs><g xml:id="surface1" id="surface1"><path style=" stroke:none;fill-rule:nonzero;fill:rgb(96.469116%,51.368713%,37.649536%);fill-opacity:1;" d="M 254.871094 120.3125 C 254.871094 122.023438 254.828125 123.738281 254.742188 125.449219 C 254.660156 127.160156 254.535156 128.867188 254.367188 130.574219 C 254.199219 132.277344 253.988281 133.976562 253.734375 135.671875 C 253.484375 137.367188 253.191406 139.054688 252.855469 140.734375 C 252.523438 142.414062 252.148438 144.085938 251.730469 145.75 C 251.3125 147.410156 250.855469 149.0625 250.359375 150.699219 C 249.859375 152.339844 249.324219 153.96875 248.746094 155.578125 C 248.167969 157.191406 247.550781 158.792969 246.894531 160.375 C 246.238281 161.957031 245.542969 163.523438 244.808594 165.070312 C 244.078125 166.621094 243.304688 168.148438 242.5 169.660156 C 241.691406 171.171875 240.84375 172.664062 239.964844 174.132812 C 239.082031 175.601562 238.164062 177.046875 237.210938 178.472656 C 236.257812 179.898438 235.273438 181.296875 234.25 182.675781 C 233.230469 184.050781 232.175781 185.402344 231.085938 186.726562 C 230 188.050781 228.878906 189.347656 227.726562 190.617188 C 226.578125 191.886719 225.394531 193.125 224.179688 194.335938 C 222.96875 195.550781 221.726562 196.730469 220.457031 197.878906 C 219.1875 199.03125 217.886719 200.148438 216.5625 201.238281 C 215.238281 202.324219 213.886719 203.378906 212.507812 204.398438 C 211.132812 205.417969 209.730469 206.40625 208.304688 207.355469 C 206.878906 208.308594 205.429688 209.226562 203.960938 210.105469 C 202.488281 210.988281 200.996094 211.832031 199.484375 212.636719 C 197.972656 213.445312 196.441406 214.214844 194.890625 214.949219 C 193.339844 215.679688 191.773438 216.375 190.191406 217.03125 C 188.605469 217.6875 187.007812 218.304688 185.390625 218.878906 C 183.777344 219.457031 182.148438 219.996094 180.507812 220.492188 C 178.867188 220.988281 177.214844 221.445312 175.550781 221.863281 C 173.886719 222.277344 172.214844 222.652344 170.535156 222.988281 C 168.851562 223.324219 167.164062 223.617188 165.46875 223.867188 C 163.769531 224.117188 162.070312 224.328125 160.363281 224.496094 C 158.65625 224.664062 156.945312 224.789062 155.234375 224.875 C 153.523438 224.957031 151.808594 225 150.09375 225 C 148.378906 225 146.664062 224.957031 144.953125 224.875 C 143.238281 224.789062 141.53125 224.664062 139.824219 224.496094 C 138.117188 224.328125 136.414062 224.117188 134.71875 223.867188 C 133.023438 223.617188 131.332031 223.324219 129.652344 222.988281 C 127.96875 222.652344 126.296875 222.277344 124.632812 221.863281 C 122.972656 221.445312 121.320312 220.988281 119.679688 220.492188 C 118.035156 219.996094 116.410156 219.457031 114.792969 218.878906 C 113.179688 218.304688 111.582031 217.6875 109.996094 217.03125 C 108.414062 216.375 106.84375 215.679688 105.296875 214.949219 C 103.746094 214.214844 102.214844 213.445312 100.703125 212.636719 C 99.1875 211.832031 97.699219 210.988281 96.226562 210.105469 C 94.757812 209.226562 93.308594 208.308594 91.882812 207.355469 C 90.457031 206.40625 89.054688 205.417969 87.675781 204.398438 C 86.300781 203.378906 84.949219 202.324219 83.625 201.238281 C 82.296875 200.148438 81 199.03125 79.730469 197.878906 C 78.457031 196.730469 77.21875 195.550781 76.003906 194.335938 C 74.792969 193.125 73.609375 191.886719 72.457031 190.617188 C 71.308594 189.347656 70.1875 188.050781 69.097656 186.726562 C 68.011719 185.402344 66.957031 184.050781 65.933594 182.675781 C 64.914062 181.296875 63.925781 179.898438 62.972656 178.472656 C 62.023438 177.046875 61.105469 175.601562 60.222656 174.132812 C 59.339844 172.664062 58.496094 171.171875 57.6875 169.660156 C 56.878906 168.148438 56.109375 166.621094 55.375 165.070312 C 54.644531 163.523438 53.949219 161.957031 53.292969 160.375 C 52.636719 158.792969 52.019531 157.191406 51.441406 155.578125 C 50.863281 153.96875 50.324219 152.339844 49.828125 150.699219 C 49.328125 149.0625 48.871094 147.410156 48.457031 145.75 C 48.039062 144.085938 47.664062 142.414062 47.328125 140.734375 C 46.996094 139.054688 46.703125 137.367188 46.449219 135.671875 C 46.199219 133.976562 45.988281 132.277344 45.820312 130.574219 C 45.652344 128.867188 45.527344 127.160156 45.441406 125.449219 C 45.359375 123.738281 45.316406 122.023438 45.316406 120.3125 C 45.316406 118.597656 45.359375 116.886719 45.441406 115.175781 C 45.527344 113.464844 45.652344 111.753906 45.820312 110.050781 C 45.988281 108.34375 46.199219 106.644531 46.449219 104.949219 C 46.703125 103.253906 46.996094 101.566406 47.328125 99.886719 C 47.664062 98.207031 48.039062 96.535156 48.457031 94.875 C 48.871094 93.210938 49.328125 91.5625 49.828125 89.921875 C 50.324219 88.28125 50.863281 86.65625 51.441406 85.042969 C 52.019531 83.429688 52.636719 81.832031 53.292969 80.25 C 53.949219 78.667969 54.644531 77.101562 55.375 75.550781 C 56.109375 74.003906 56.878906 72.472656 57.6875 70.960938 C 58.496094 69.449219 59.339844 67.960938 60.222656 66.492188 C 61.105469 65.019531 62.023438 63.574219 62.972656 62.148438 C 63.925781 60.726562 64.914062 59.324219 65.933594 57.949219 C 66.957031 56.574219 68.011719 55.222656 69.097656 53.898438 C 70.1875 52.574219 71.308594 51.277344 72.457031 50.007812 C 73.609375 48.738281 74.792969 47.496094 76.003906 46.285156 C 77.21875 45.074219 78.457031 43.894531 79.730469 42.742188 C 81 41.59375 82.296875 40.472656 83.625 39.386719 C 84.949219 38.300781 86.300781 37.246094 87.675781 36.226562 C 89.054688 35.203125 90.457031 34.21875 91.882812 33.265625 C 93.308594 32.3125 94.757812 31.398438 96.226562 30.515625 C 97.699219 29.636719 99.1875 28.792969 100.703125 27.984375 C 102.214844 27.175781 103.746094 26.40625 105.296875 25.675781 C 106.84375 24.941406 108.414062 24.246094 109.996094 23.59375 C 111.582031 22.9375 113.179688 22.320312 114.792969 21.742188 C 116.410156 21.164062 118.035156 20.628906 119.679688 20.128906 C 121.320312 19.632812 122.972656 19.175781 124.632812 18.761719 C 126.296875 18.34375 127.96875 17.96875 129.652344 17.632812 C 131.332031 17.300781 133.023438 17.007812 134.71875 16.757812 C 136.414062 16.503906 138.117188 16.296875 139.824219 16.128906 C 141.53125 15.960938 143.238281 15.832031 144.953125 15.75 C 146.664062 15.664062 148.378906 15.621094 150.09375 15.621094 C 151.808594 15.621094 153.523438 15.664062 155.234375 15.75 C 156.945312 15.832031 158.65625 15.960938 160.363281 16.128906 C 162.070312 16.296875 163.769531 16.503906 165.46875 16.757812 C 167.164062 17.007812 168.851562 17.300781 170.535156 17.632812 C 172.214844 17.96875 173.886719 18.34375 175.550781 18.761719 C 177.214844 19.175781 178.867188 19.632812 180.507812 20.128906 C 182.148438 20.628906 183.777344 21.164062 185.390625 21.742188 C 187.007812 22.320312 188.605469 22.9375 190.191406 23.59375 C 191.773438 24.246094 193.339844 24.941406 194.890625 25.675781 C 196.441406 26.40625 197.972656 27.175781 199.484375 27.984375 C 200.996094 28.792969 202.488281 29.636719 203.960938 30.515625 C 205.429688 31.398438 206.878906 32.3125 208.304688 33.265625 C 209.730469 34.21875 211.132812 35.203125 212.507812 36.226562 C 213.886719 37.246094 215.238281 38.300781 216.5625 39.386719 C 217.886719 40.472656 219.1875 41.59375 220.457031 42.742188 C 221.726562 43.894531 222.96875 45.074219 224.179688 46.285156 C 225.394531 47.496094 226.574219 48.738281 227.726562 50.007812 C 228.878906 51.277344 230 52.574219 231.085938 53.898438 C 232.175781 55.222656 233.230469 56.574219 234.25 57.949219 C 235.273438 59.324219 236.257812 60.726562 237.210938 62.148438 C 238.164062 63.574219 239.082031 65.019531 239.964844 66.492188 C 240.84375 67.960938 241.691406 69.449219 242.5 70.960938 C 243.304688 72.472656 244.078125 74.003906 244.808594 75.550781 C 245.542969 77.101562 246.238281 78.667969 246.894531 80.25 C 247.550781 81.832031 248.167969 83.429688 248.746094 85.042969 C 249.324219 86.65625 249.859375 88.28125 250.359375 89.921875 C 250.855469 91.5625 251.3125 93.210938 251.730469 94.875 C 252.148438 96.535156 252.523438 98.207031 252.855469 99.886719 C 253.191406 101.566406 253.484375 103.253906 253.734375 104.949219 C 253.988281 106.644531 254.199219 108.34375 254.367188 110.050781 C 254.535156 111.753906 254.660156 113.464844 254.742188 115.175781 C 254.828125 116.886719 254.871094 118.597656 254.871094 120.3125 Z M 254.871094 120.3125 "/><path style=" stroke:none;fill-rule:nonzero;fill:rgb(92.939758%,42.749023%,27.839661%);fill-opacity:1;" d="M 73.175781 191.390625 C 92.316406 212.054688 119.691406 225 150.09375 225 C 180.496094 225 207.871094 212.054688 227.007812 191.390625 Z M 73.175781 191.390625 "/><path style=" stroke:none;fill-rule:nonzero;fill:rgb(100%,100%,100%);fill-opacity:1;" d="M 233.351562 162.921875 C 233.351562 163.867188 232.988281 164.8125 232.265625 165.535156 C 231.542969 166.257812 230.597656 166.617188 229.652344 166.617188 L 70.535156 166.617188 C 69.585938 166.617188 68.640625 166.257812 67.917969 165.535156 C 67.199219 164.8125 66.835938 163.867188 66.835938 162.921875 L 66.835938 151.828125 L 233.351562 151.828125 Z M 233.351562 162.921875 "/><path style=" stroke:none;fill-rule:nonzero;fill:rgb(13.729858%,18.03894%,21.958923%);fill-opacity:1;" d="M 233.351562 45.300781 C 233.351562 44.355469 232.988281 43.410156 232.265625 42.6875 C 231.542969 41.964844 230.597656 41.605469 229.652344 41.605469 L 70.535156 41.605469 C 69.585938 41.605469 68.640625 41.964844 67.917969 42.6875 C 67.199219 43.410156 66.835938 44.355469 66.835938 45.300781 L 66.835938 151.828125 L 233.351562 151.828125 Z M 233.351562 45.300781 "/><path style=" stroke:none;fill-rule:nonzero;fill:rgb(100%,100%,100%);fill-opacity:1;" d="M 75.160156 49.921875 L 225.023438 49.921875 L 225.023438 143.511719 L 75.160156 143.511719 Z M 75.160156 49.921875 "/><path style=" stroke:none;fill-rule:nonzero;fill:rgb(94.898987%,94.898987%,94.898987%);fill-opacity:1;" d="M 173.222656 188.804688 L 126.964844 188.804688 L 129.476562 166.617188 L 170.710938 166.617188 Z M 173.222656 188.804688 "/><path style=" stroke:none;fill-rule:nonzero;fill:rgb(100%,100%,100%);fill-opacity:1;" d="M 182.472656 191.390625 L 117.710938 191.390625 L 117.710938 190.28125 C 117.710938 189.902344 117.859375 189.523438 118.148438 189.238281 C 118.4375 188.945312 118.816406 188.804688 119.195312 188.804688 L 180.992188 188.804688 C 181.367188 188.804688 181.75 188.949219 182.035156 189.238281 C 182.328125 189.523438 182.472656 189.902344 182.472656 190.28125 Z M 182.472656 191.390625 "/><path style=" stroke:none;fill-rule:nonzero;fill:rgb(90.19928%,89.7995%,89.7995%);fill-opacity:1;" d="M 173.222656 188.804688 L 170.710938 166.617188 L 129.476562 166.617188 L 150.988281 188.804688 Z M 173.222656 188.804688 "/><g clip-rule="nonzero" clip-path="url(#clip1)"><path style=" stroke:none;fill-rule:nonzero;fill:rgb(94.898987%,94.898987%,94.898987%);fill-opacity:1;" d="M 56.078125 80.726562 L 39.273438 75.617188 L 56.078125 70.503906 Z M 56.078125 80.726562 "/></g><g clip-rule="nonzero" clip-path="url(#clip2)"><path style=" stroke:none;fill-rule:nonzero;fill:rgb(79.998779%,79.60968%,79.219055%);fill-opacity:1;" d="M 39.273438 75.617188 L 56.078125 80.726562 L 56.078125 77.511719 Z M 39.273438 75.617188 "/></g><path style=" stroke:none;fill-rule:nonzero;fill:rgb(100%,83.918762%,50.19989%);fill-opacity:1;" d="M 56.078125 70.503906 L 243.472656 70.503906 L 243.472656 80.726562 L 56.078125 80.726562 Z M 56.078125 70.503906 "/><path style=" stroke:none;fill-rule:nonzero;fill:rgb(100%,72.549438%,34.899902%);fill-opacity:1;" d="M 56.078125 77.511719 L 243.472656 77.511719 L 243.472656 80.726562 L 56.078125 80.726562 Z M 56.078125 77.511719 "/><g clip-rule="nonzero" clip-path="url(#clip3)"><path style=" stroke:none;fill-rule:nonzero;fill:rgb(20.779419%,24.708557%,28.62854%);fill-opacity:1;" d="M 45.847656 77.613281 L 39.273438 75.617188 L 45.847656 73.605469 Z M 45.847656 77.613281 "/></g><g clip-rule="nonzero" clip-path="url(#clip4)"><path style=" stroke:none;fill-rule:nonzero;fill:rgb(13.729858%,18.03894%,21.958923%);fill-opacity:1;" d="M 45.847656 77.613281 L 39.273438 75.617188 L 45.847656 76.359375 Z M 45.847656 77.613281 "/></g><path style=" stroke:none;fill-rule:nonzero;fill:rgb(94.898987%,94.898987%,94.898987%);fill-opacity:1;" d="M 243.472656 70.503906 L 249.40625 70.503906 L 249.40625 80.726562 L 243.472656 80.726562 Z M 243.472656 70.503906 "/><path style=" stroke:none;fill-rule:nonzero;fill:rgb(79.998779%,79.60968%,79.219055%);fill-opacity:1;" d="M 243.472656 77.511719 L 249.40625 77.511719 L 249.40625 80.726562 L 243.472656 80.726562 Z M 243.472656 77.511719 "/><path style=" stroke:none;fill-rule:nonzero;fill:rgb(96.469116%,51.368713%,37.649536%);fill-opacity:1;" d="M 255.800781 80.726562 C 257.109375 80.726562 258.417969 80.226562 259.417969 79.226562 C 260.414062 78.230469 260.914062 76.921875 260.914062 75.613281 C 260.914062 74.308594 260.414062 73 259.417969 72.003906 C 258.417969 71.003906 257.109375 70.503906 255.800781 70.503906 L 249.40625 70.503906 L 249.40625 80.726562 Z M 255.800781 80.726562 "/><path style=" stroke:none;fill-rule:nonzero;fill:rgb(92.939758%,42.749023%,27.839661%);fill-opacity:1;" d="M 259.417969 72.003906 C 258.835938 71.421875 258.144531 71.03125 257.417969 70.789062 C 257.589844 71.3125 257.699219 71.855469 257.699219 72.402344 C 257.699219 73.710938 257.199219 75.015625 256.203125 76.015625 C 255.203125 77.011719 253.894531 77.511719 252.585938 77.511719 L 249.410156 77.511719 L 249.410156 80.722656 L 255.800781 80.722656 C 257.109375 80.722656 258.417969 80.226562 259.417969 79.226562 C 260.417969 78.230469 260.914062 76.921875 260.914062 75.613281 C 260.914062 74.308594 260.414062 73 259.417969 72.003906 Z M 259.417969 72.003906 "/><g clip-rule="nonzero" clip-path="url(#clip5)"><path style=" stroke:none;fill-rule:nonzero;fill:rgb(27.839661%,30.979919%,34.899902%);fill-opacity:1;" d="M 260.914062 122.929688 L 260.914062 101.308594 L 39.273438 101.308594 L 39.273438 122.929688 Z M 52.5 112.117188 C 52.5 113.5 51.378906 114.617188 49.996094 114.617188 C 48.613281 114.617188 47.492188 113.5 47.492188 112.117188 C 47.492188 110.734375 48.613281 109.617188 49.996094 109.617188 C 51.378906 109.617188 52.5 110.734375 52.5 112.117188 Z M 52.5 112.117188 "/></g><path style=" stroke:none;fill-rule:nonzero;fill:rgb(100%,100%,100%);fill-opacity:1;" d="M 42.554688 119.765625 L 43.144531 119.765625 L 43.144531 122.929688 L 42.554688 122.929688 Z M 42.554688 119.765625 "/><path style=" stroke:none;fill-rule:nonzero;fill:rgb(100%,100%,100%);fill-opacity:1;" d="M 49.703125 119.765625 L 50.292969 119.765625 L 50.292969 122.929688 L 49.703125 122.929688 Z M 49.703125 119.765625 "/><path style=" stroke:none;fill-rule:nonzero;fill:rgb(100%,100%,100%);fill-opacity:1;" d="M 56.851562 119.765625 L 57.445312 119.765625 L 57.445312 122.929688 L 56.851562 122.929688 Z M 56.851562 119.765625 "/><path style=" stroke:none;fill-rule:nonzero;fill:rgb(100%,100%,100%);fill-opacity:1;" d="M 64.003906 119.765625 L 64.597656 119.765625 L 64.597656 122.929688 L 64.003906 122.929688 Z M 64.003906 119.765625 "/><path style=" stroke:none;fill-rule:nonzero;fill:rgb(100%,100%,100%);fill-opacity:1;" d="M 71.152344 119.765625 L 71.746094 119.765625 L 71.746094 122.929688 L 71.152344 122.929688 Z M 71.152344 119.765625 "/><path style=" stroke:none;fill-rule:nonzero;fill:rgb(100%,100%,100%);fill-opacity:1;" d="M 78.300781 119.765625 L 78.894531 119.765625 L 78.894531 122.929688 L 78.300781 122.929688 Z M 78.300781 119.765625 "/><path style=" stroke:none;fill-rule:nonzero;fill:rgb(100%,100%,100%);fill-opacity:1;" d="M 85.449219 119.765625 L 86.042969 119.765625 L 86.042969 122.929688 L 85.449219 122.929688 Z M 85.449219 119.765625 "/><path style=" stroke:none;fill-rule:nonzero;fill:rgb(100%,100%,100%);fill-opacity:1;" d="M 92.605469 119.765625 L 93.199219 119.765625 L 93.199219 122.929688 L 92.605469 122.929688 Z M 92.605469 119.765625 "/><path style=" stroke:none;fill-rule:nonzero;fill:rgb(100%,100%,100%);fill-opacity:1;" d="M 99.75 119.765625 L 100.34375 119.765625 L 100.34375 122.929688 L 99.75 122.929688 Z M 99.75 119.765625 "/><path style=" stroke:none;fill-rule:nonzero;fill:rgb(100%,100%,100%);fill-opacity:1;" d="M 106.902344 119.765625 L 107.496094 119.765625 L 107.496094 122.929688 L 106.902344 122.929688 Z M 106.902344 119.765625 "/><path style=" stroke:none;fill-rule:nonzero;fill:rgb(100%,100%,100%);fill-opacity:1;" d="M 114.046875 119.765625 L 114.640625 119.765625 L 114.640625 122.929688 L 114.046875 122.929688 Z M 114.046875 119.765625 "/><path style=" stroke:none;fill-rule:nonzero;fill:rgb(100%,100%,100%);fill-opacity:1;" d="M 121.195312 119.765625 L 121.789062 119.765625 L 121.789062 122.929688 L 121.195312 122.929688 Z M 121.195312 119.765625 "/><path style=" stroke:none;fill-rule:nonzero;fill:rgb(100%,100%,100%);fill-opacity:1;" d="M 128.34375 119.765625 L 128.941406 119.765625 L 128.941406 122.929688 L 128.34375 122.929688 Z M 128.34375 119.765625 "/><path style=" stroke:none;fill-rule:nonzero;fill:rgb(100%,100%,100%);fill-opacity:1;" d="M 135.5 119.765625 L 136.09375 119.765625 L 136.09375 122.929688 L 135.5 122.929688 Z M 135.5 119.765625 "/><path style=" stroke:none;fill-rule:nonzero;fill:rgb(100%,100%,100%);fill-opacity:1;" d="M 142.644531 119.765625 L 143.242188 119.765625 L 143.242188 122.929688 L 142.644531 122.929688 Z M 142.644531 119.765625 "/><path style=" stroke:none;fill-rule:nonzero;fill:rgb(100%,100%,100%);fill-opacity:1;" d="M 149.796875 119.765625 L 150.394531 119.765625 L 150.394531 122.929688 L 149.796875 122.929688 Z M 149.796875 119.765625 "/><path style=" stroke:none;fill-rule:nonzero;fill:rgb(100%,100%,100%);fill-opacity:1;" d="M 156.945312 119.765625 L 157.539062 119.765625 L 157.539062 122.929688 L 156.945312 122.929688 Z M 156.945312 119.765625 "/><path style=" stroke:none;fill-rule:nonzero;fill:rgb(100%,100%,100%);fill-opacity:1;" d="M 164.09375 119.765625 L 164.691406 119.765625 L 164.691406 122.929688 L 164.09375 122.929688 Z M 164.09375 119.765625 "/><path style=" stroke:none;fill-rule:nonzero;fill:rgb(100%,100%,100%);fill-opacity:1;" d="M 171.246094 119.765625 L 171.84375 119.765625 L 171.84375 122.929688 L 171.246094 122.929688 Z M 171.246094 119.765625 "/><path style=" stroke:none;fill-rule:nonzero;fill:rgb(100%,100%,100%);fill-opacity:1;" d="M 178.394531 119.765625 L 178.988281 119.765625 L 178.988281 122.929688 L 178.394531 122.929688 Z M 178.394531 119.765625 "/><path style=" stroke:none;fill-rule:nonzero;fill:rgb(100%,100%,100%);fill-opacity:1;" d="M 185.542969 119.765625 L 186.136719 119.765625 L 186.136719 122.929688 L 185.542969 122.929688 Z M 185.542969 119.765625 "/><path style=" stroke:none;fill-rule:nonzero;fill:rgb(100%,100%,100%);fill-opacity:1;" d="M 192.691406 119.765625 L 193.285156 119.765625 L 193.285156 122.929688 L 192.691406 122.929688 Z M 192.691406 119.765625 "/><path style=" stroke:none;fill-rule:nonzero;fill:rgb(100%,100%,100%);fill-opacity:1;" d="M 199.84375 119.765625 L 200.4375 119.765625 L 200.4375 122.929688 L 199.84375 122.929688 Z M 199.84375 119.765625 "/><path style=" stroke:none;fill-rule:nonzero;fill:rgb(100%,100%,100%);fill-opacity:1;" d="M 206.996094 119.765625 L 207.589844 119.765625 L 207.589844 122.929688 L 206.996094 122.929688 Z M 206.996094 119.765625 "/><path style=" stroke:none;fill-rule:nonzero;fill:rgb(100%,100%,100%);fill-opacity:1;" d="M 214.144531 119.765625 L 214.738281 119.765625 L 214.738281 122.929688 L 214.144531 122.929688 Z M 214.144531 119.765625 "/><path style=" stroke:none;fill-rule:nonzero;fill:rgb(100%,100%,100%);fill-opacity:1;" d="M 221.300781 119.765625 L 221.890625 119.765625 L 221.890625 122.929688 L 221.300781 122.929688 Z M 221.300781 119.765625 "/><path style=" stroke:none;fill-rule:nonzero;fill:rgb(100%,100%,100%);fill-opacity:1;" d="M 228.445312 119.765625 L 229.039062 119.765625 L 229.039062 122.929688 L 228.445312 122.929688 Z M 228.445312 119.765625 "/><path style=" stroke:none;fill-rule:nonzero;fill:rgb(100%,100%,100%);fill-opacity:1;" d="M 235.59375 119.765625 L 236.1875 119.765625 L 236.1875 122.929688 L 235.59375 122.929688 Z M 235.59375 119.765625 "/><path style=" stroke:none;fill-rule:nonzero;fill:rgb(100%,100%,100%);fill-opacity:1;" d="M 242.742188 119.765625 L 243.335938 119.765625 L 243.335938 122.929688 L 242.742188 122.929688 Z M 242.742188 119.765625 "/><path style=" stroke:none;fill-rule:nonzero;fill:rgb(100%,100%,100%);fill-opacity:1;" d="M 249.890625 119.765625 L 250.484375 119.765625 L 250.484375 122.929688 L 249.890625 122.929688 Z M 249.890625 119.765625 "/><path style=" stroke:none;fill-rule:nonzero;fill:rgb(100%,100%,100%);fill-opacity:1;" d="M 257.042969 119.765625 L 257.632812 119.765625 L 257.632812 122.929688 L 257.042969 122.929688 Z M 257.042969 119.765625 "/><path style=" stroke:none;fill-rule:nonzero;fill:rgb(100%,100%,100%);fill-opacity:1;" d="M 46.222656 121.347656 L 46.617188 121.347656 L 46.617188 122.929688 L 46.222656 122.929688 Z M 46.222656 121.347656 "/><path style=" stroke:none;fill-rule:nonzero;fill:rgb(100%,100%,100%);fill-opacity:1;" d="M 53.378906 121.347656 L 53.773438 121.347656 L 53.773438 122.929688 L 53.378906 122.929688 Z M 53.378906 121.347656 "/><path style=" stroke:none;fill-rule:nonzero;fill:rgb(100%,100%,100%);fill-opacity:1;" d="M 60.527344 121.347656 L 60.921875 121.347656 L 60.921875 122.929688 L 60.527344 122.929688 Z M 60.527344 121.347656 "/><path style=" stroke:none;fill-rule:nonzero;fill:rgb(100%,100%,100%);fill-opacity:1;" d="M 67.679688 121.347656 L 68.074219 121.347656 L 68.074219 122.929688 L 67.679688 122.929688 Z M 67.679688 121.347656 "/><path style=" stroke:none;fill-rule:nonzero;fill:rgb(100%,100%,100%);fill-opacity:1;" d="M 74.828125 121.347656 L 75.222656 121.347656 L 75.222656 122.929688 L 74.828125 122.929688 Z M 74.828125 121.347656 "/><path style=" stroke:none;fill-rule:nonzero;fill:rgb(100%,100%,100%);fill-opacity:1;" d="M 81.976562 121.347656 L 82.371094 121.347656 L 82.371094 122.929688 L 81.976562 122.929688 Z M 81.976562 121.347656 "/><path style=" stroke:none;fill-rule:nonzero;fill:rgb(100%,100%,100%);fill-opacity:1;" d="M 89.125 121.347656 L 89.523438 121.347656 L 89.523438 122.929688 L 89.125 122.929688 Z M 89.125 121.347656 "/><path style=" stroke:none;fill-rule:nonzero;fill:rgb(100%,100%,100%);fill-opacity:1;" d="M 96.277344 121.347656 L 96.667969 121.347656 L 96.667969 122.929688 L 96.277344 122.929688 Z M 96.277344 121.347656 "/><path style=" stroke:none;fill-rule:nonzero;fill:rgb(100%,100%,100%);fill-opacity:1;" d="M 103.421875 121.347656 L 103.820312 121.347656 L 103.820312 122.929688 L 103.421875 122.929688 Z M 103.421875 121.347656 "/><path style=" stroke:none;fill-rule:nonzero;fill:rgb(100%,100%,100%);fill-opacity:1;" d="M 110.578125 121.347656 L 110.972656 121.347656 L 110.972656 122.929688 L 110.578125 122.929688 Z M 110.578125 121.347656 "/><path style=" stroke:none;fill-rule:nonzero;fill:rgb(100%,100%,100%);fill-opacity:1;" d="M 117.722656 121.347656 L 118.117188 121.347656 L 118.117188 122.929688 L 117.722656 122.929688 Z M 117.722656 121.347656 "/><path style=" stroke:none;fill-rule:nonzero;fill:rgb(100%,100%,100%);fill-opacity:1;" d="M 124.871094 121.347656 L 125.269531 121.347656 L 125.269531 122.929688 L 124.871094 122.929688 Z M 124.871094 121.347656 "/><path style=" stroke:none;fill-rule:nonzero;fill:rgb(100%,100%,100%);fill-opacity:1;" d="M 132.023438 121.347656 L 132.417969 121.347656 L 132.417969 122.929688 L 132.023438 122.929688 Z M 132.023438 121.347656 "/><path style=" stroke:none;fill-rule:nonzero;fill:rgb(100%,100%,100%);fill-opacity:1;" d="M 139.167969 121.347656 L 139.566406 121.347656 L 139.566406 122.929688 L 139.167969 122.929688 Z M 139.167969 121.347656 "/><path style=" stroke:none;fill-rule:nonzero;fill:rgb(100%,100%,100%);fill-opacity:1;" d="M 146.320312 121.347656 L 146.71875 121.347656 L 146.71875 122.929688 L 146.320312 122.929688 Z M 146.320312 121.347656 "/><path style=" stroke:none;fill-rule:nonzero;fill:rgb(100%,100%,100%);fill-opacity:1;" d="M 153.46875 121.347656 L 153.867188 121.347656 L 153.867188 122.929688 L 153.46875 122.929688 Z M 153.46875 121.347656 "/><path style=" stroke:none;fill-rule:nonzero;fill:rgb(100%,100%,100%);fill-opacity:1;" d="M 160.621094 121.347656 L 161.019531 121.347656 L 161.019531 122.929688 L 160.621094 122.929688 Z M 160.621094 121.347656 "/><path style=" stroke:none;fill-rule:nonzero;fill:rgb(100%,100%,100%);fill-opacity:1;" d="M 167.769531 121.347656 L 168.164062 121.347656 L 168.164062 122.929688 L 167.769531 122.929688 Z M 167.769531 121.347656 "/><path style=" stroke:none;fill-rule:nonzero;fill:rgb(100%,100%,100%);fill-opacity:1;" d="M 174.917969 121.347656 L 175.3125 121.347656 L 175.3125 122.929688 L 174.917969 122.929688 Z M 174.917969 121.347656 "/><path style=" stroke:none;fill-rule:nonzero;fill:rgb(100%,100%,100%);fill-opacity:1;" d="M 182.070312 121.347656 L 182.464844 121.347656 L 182.464844 122.929688 L 182.070312 122.929688 Z M 182.070312 121.347656 "/><path style=" stroke:none;fill-rule:nonzero;fill:rgb(100%,100%,100%);fill-opacity:1;" d="M 189.21875 121.347656 L 189.613281 121.347656 L 189.613281 122.929688 L 189.21875 122.929688 Z M 189.21875 121.347656 "/><path style=" stroke:none;fill-rule:nonzero;fill:rgb(100%,100%,100%);fill-opacity:1;" d="M 196.375 121.347656 L 196.769531 121.347656 L 196.769531 122.929688 L 196.375 122.929688 Z M 196.375 121.347656 "/><path style=" stroke:none;fill-rule:nonzero;fill:rgb(100%,100%,100%);fill-opacity:1;" d="M 203.519531 121.347656 L 203.914062 121.347656 L 203.914062 122.929688 L 203.519531 122.929688 Z M 203.519531 121.347656 "/><path style=" stroke:none;fill-rule:nonzero;fill:rgb(100%,100%,100%);fill-opacity:1;" d="M 210.667969 121.347656 L 211.0625 121.347656 L 211.0625 122.929688 L 210.667969 122.929688 Z M 210.667969 121.347656 "/><path style=" stroke:none;fill-rule:nonzero;fill:rgb(100%,100%,100%);fill-opacity:1;" d="M 217.820312 121.347656 L 218.214844 121.347656 L 218.214844 122.929688 L 217.820312 122.929688 Z M 217.820312 121.347656 "/><path style=" stroke:none;fill-rule:nonzero;fill:rgb(100%,100%,100%);fill-opacity:1;" d="M 224.960938 121.347656 L 225.359375 121.347656 L 225.359375 122.929688 L 224.960938 122.929688 Z M 224.960938 121.347656 "/><path style=" stroke:none;fill-rule:nonzero;fill:rgb(100%,100%,100%);fill-opacity:1;" d="M 232.117188 121.347656 L 232.511719 121.347656 L 232.511719 122.929688 L 232.117188 122.929688 Z M 232.117188 121.347656 "/><path style=" stroke:none;fill-rule:nonzero;fill:rgb(100%,100%,100%);fill-opacity:1;" d="M 239.269531 121.347656 L 239.664062 121.347656 L 239.664062 122.929688 L 239.269531 122.929688 Z M 239.269531 121.347656 "/><path style=" stroke:none;fill-rule:nonzero;fill:rgb(100%,100%,100%);fill-opacity:1;" d="M 246.417969 121.347656 L 246.8125 121.347656 L 246.8125 122.929688 L 246.417969 122.929688 Z M 246.417969 121.347656 "/><path style=" stroke:none;fill-rule:nonzero;fill:rgb(100%,100%,100%);fill-opacity:1;" d="M 253.566406 121.347656 L 253.960938 121.347656 L 253.960938 122.929688 L 253.566406 122.929688 Z M 253.566406 121.347656 "/><path style=" stroke:none;fill-rule:nonzero;fill:rgb(10.978699%,14.509583%,17.248535%);fill-opacity:1;" d="M 211.824219 41.601562 L 210.894531 49.921875 L 89.289062 49.921875 L 88.363281 41.601562 Z M 211.824219 41.601562 "/><path style=" stroke:none;fill-rule:nonzero;fill:rgb(79.998779%,66.668701%,39.608765%);fill-opacity:1;" d="M 208.605469 70.503906 L 207.824219 77.511719 L 92.359375 77.511719 L 91.578125 70.503906 Z M 208.605469 70.503906 "/><path style=" stroke:none;fill-rule:nonzero;fill:rgb(79.998779%,57.649231%,27.839661%);fill-opacity:1;" d="M 207.824219 77.511719 L 207.46875 80.722656 L 92.714844 80.722656 L 92.359375 77.511719 Z M 207.824219 77.511719 "/><path style=" stroke:none;fill-rule:nonzero;fill:rgb(79.998779%,79.60968%,79.219055%);fill-opacity:1;" d="M 207.46875 80.722656 L 205.179688 101.304688 L 95.003906 101.304688 L 92.714844 80.722656 Z M 207.46875 80.722656 "/><path style=" stroke:none;fill-rule:nonzero;fill:rgb(22.349548%,24.708557%,27.839661%);fill-opacity:1;" d="M 205.179688 101.304688 L 202.78125 122.929688 L 97.40625 122.929688 L 95.003906 101.304688 Z M 205.179688 101.304688 "/><path style=" stroke:none;fill-rule:nonzero;fill:rgb(79.998779%,79.60968%,79.219055%);fill-opacity:1;" d="M 202.78125 122.929688 L 200.488281 143.511719 L 99.695312 143.511719 L 97.40625 122.929688 Z M 202.78125 122.929688 "/><path style=" stroke:none;fill-rule:nonzero;fill:rgb(79.998779%,79.60968%,79.219055%);fill-opacity:1;" d="M 210.894531 49.921875 L 208.605469 70.503906 L 91.578125 70.503906 L 89.289062 49.921875 Z M 210.894531 49.921875 "/><path style=" stroke:none;fill-rule:nonzero;fill:rgb(90.19928%,89.7995%,89.7995%);fill-opacity:1;" d="M 99.695312 10.070312 L 200.488281 10.070312 L 200.488281 143.511719 L 99.695312 143.511719 Z M 99.695312 10.070312 "/><path style=" stroke:none;fill-rule:nonzero;fill:rgb(100%,100%,100%);fill-opacity:1;" d="M 104.667969 16.367188 L 195.523438 16.367188 L 195.523438 143.511719 L 104.667969 143.511719 Z M 104.667969 16.367188 "/><path style=" stroke:none;fill-rule:nonzero;fill:rgb(56.858826%,82.749939%,85.099792%);fill-opacity:1;" d="M 99.695312 0 L 200.488281 0 L 200.488281 5.035156 L 99.695312 5.035156 Z M 99.695312 0 "/><path style=" stroke:none;fill-rule:nonzero;fill:rgb(90.19928%,89.7995%,89.7995%);fill-opacity:1;" d="M 99.695312 5.035156 L 200.488281 5.035156 L 200.488281 10.070312 L 99.695312 10.070312 Z M 99.695312 5.035156 "/><path style=" stroke:none;fill-rule:nonzero;fill:rgb(100%,100%,100%);fill-opacity:1;" d="M 108.433594 6.546875 L 191.757812 6.546875 L 191.757812 8.558594 L 108.433594 8.558594 Z M 108.433594 6.546875 "/><path style=" stroke:none;fill-rule:nonzero;fill:rgb(96.469116%,51.368713%,37.649536%);fill-opacity:1;" d="M 99.695312 2.519531 L 108.429688 2.519531 L 108.429688 5.035156 L 99.695312 5.035156 Z M 99.695312 2.519531 "/><path style=" stroke:none;fill-rule:nonzero;fill:rgb(90.19928%,89.7995%,89.7995%);fill-opacity:1;" d="M 108.433594 2.519531 L 129.265625 2.519531 L 129.265625 5.035156 L 108.433594 5.035156 Z M 108.433594 2.519531 "/><path style=" stroke:none;fill-rule:nonzero;fill:rgb(79.998779%,79.60968%,79.219055%);fill-opacity:1;" d="M 129.265625 2.519531 L 150.09375 2.519531 L 150.09375 5.035156 L 129.265625 5.035156 Z M 129.265625 2.519531 "/><path style=" stroke:none;fill-rule:nonzero;fill:rgb(79.998779%,79.60968%,79.219055%);fill-opacity:1;" d="M 104.667969 6.546875 L 106.679688 6.546875 L 106.679688 8.558594 L 104.667969 8.558594 Z M 104.667969 6.546875 "/><path style=" stroke:none;fill-rule:nonzero;fill:rgb(79.998779%,79.60968%,79.219055%);fill-opacity:1;" d="M 101.449219 6.546875 L 103.460938 6.546875 L 103.460938 8.558594 L 101.449219 8.558594 Z M 101.449219 6.546875 "/><path style=" stroke:none;fill-rule:nonzero;fill:rgb(79.998779%,79.60968%,79.219055%);fill-opacity:1;" d="M 196.726562 6.546875 L 198.738281 6.546875 L 198.738281 8.558594 L 196.726562 8.558594 Z M 196.726562 6.546875 "/><path style=" stroke:none;fill-rule:nonzero;fill:rgb(79.998779%,79.60968%,79.219055%);fill-opacity:1;" d="M 193.503906 6.546875 L 195.523438 6.546875 L 195.523438 8.558594 L 193.503906 8.558594 Z M 193.503906 6.546875 "/><path style=" stroke:none;fill-rule:nonzero;fill:rgb(100%,78.42865%,42.749023%);fill-opacity:1;" d="M 104.667969 46.828125 L 195.523438 46.828125 L 195.523438 81.65625 L 104.667969 81.65625 Z M 104.667969 46.828125 "/><path style=" stroke:none;fill-rule:nonzero;fill:rgb(100%,100%,100%);fill-opacity:1;" d="M 109.144531 64.242188 L 111.503906 66.597656 L 111.503906 61.886719 Z M 109.144531 64.242188 "/><path style=" stroke:none;fill-rule:nonzero;fill:rgb(100%,100%,100%);fill-opacity:1;" d="M 191.039062 64.242188 L 188.683594 66.597656 L 188.683594 61.886719 Z M 191.039062 64.242188 "/><path style=" stroke:none;fill-rule:nonzero;fill:rgb(27.839661%,30.979919%,34.899902%);fill-opacity:1;" d="M 141.847656 53.71875 L 165.84375 53.71875 L 165.84375 56.046875 L 141.847656 56.046875 Z M 141.847656 53.71875 "/><path style=" stroke:none;fill-rule:nonzero;fill:rgb(100%,100%,100%);fill-opacity:1;" d="M 141.847656 57.710938 L 181.972656 57.710938 L 181.972656 58.355469 L 141.847656 58.355469 Z M 141.847656 57.710938 "/><path style=" stroke:none;fill-rule:nonzero;fill:rgb(100%,100%,100%);fill-opacity:1;" d="M 141.847656 60.085938 L 181.972656 60.085938 L 181.972656 60.730469 L 141.847656 60.730469 Z M 141.847656 60.085938 "/><path style=" stroke:none;fill-rule:nonzero;fill:rgb(100%,100%,100%);fill-opacity:1;" d="M 141.890625 62.460938 L 181.972656 62.460938 L 181.972656 63.105469 L 141.890625 63.105469 Z M 141.890625 62.460938 "/><path style=" stroke:none;fill-rule:nonzero;fill:rgb(100%,100%,100%);fill-opacity:1;" d="M 141.890625 64.835938 L 175.074219 64.835938 L 175.074219 65.484375 L 141.890625 65.484375 Z M 141.890625 64.835938 "/><path style=" stroke:none;fill-rule:nonzero;fill:rgb(100%,100%,100%);fill-opacity:1;" d="M 118.117188 53.71875 L 139.179688 53.71875 L 139.179688 74.765625 L 118.117188 74.765625 Z M 118.117188 53.71875 "/><path style=" stroke:none;fill-rule:nonzero;fill:rgb(79.998779%,79.60968%,79.219055%);fill-opacity:1;" d="M 138.472656 120.296875 L 161.710938 120.296875 L 161.710938 134.808594 L 138.472656 134.808594 Z M 138.472656 120.296875 "/><path style=" stroke:none;fill-rule:nonzero;fill:rgb(27.839661%,30.979919%,34.899902%);fill-opacity:1;" d="M 138.472656 134.808594 L 161.710938 134.808594 L 161.710938 137.472656 L 138.472656 137.472656 Z M 138.472656 134.808594 "/><path style=" stroke:none;fill-rule:nonzero;fill:rgb(100%,100%,100%);fill-opacity:1;" d="M 148.515625 125.738281 L 151.667969 127.554688 L 148.515625 129.371094 Z M 148.515625 125.738281 "/><path style=" stroke:none;fill-rule:nonzero;fill:rgb(79.998779%,79.60968%,79.219055%);fill-opacity:1;" d="M 167.800781 120.296875 L 179.421875 120.296875 L 179.421875 121.796875 L 167.800781 121.796875 Z M 167.800781 120.296875 "/><path style=" stroke:none;fill-rule:nonzero;fill:rgb(79.998779%,79.60968%,79.219055%);fill-opacity:1;" d="M 167.800781 123.128906 L 191.039062 123.128906 L 191.039062 123.773438 L 167.800781 123.773438 Z M 167.800781 123.128906 "/><path style=" stroke:none;fill-rule:nonzero;fill:rgb(79.998779%,79.60968%,79.219055%);fill-opacity:1;" d="M 167.800781 125.105469 L 191.039062 125.105469 L 191.039062 125.753906 L 167.800781 125.753906 Z M 167.800781 125.105469 "/><path style=" stroke:none;fill-rule:nonzero;fill:rgb(79.998779%,79.60968%,79.219055%);fill-opacity:1;" d="M 167.800781 127.082031 L 191.039062 127.082031 L 191.039062 127.730469 L 167.800781 127.730469 Z M 167.800781 127.082031 "/><path style=" stroke:none;fill-rule:nonzero;fill:rgb(79.998779%,79.60968%,79.219055%);fill-opacity:1;" d="M 167.800781 129.0625 L 191.039062 129.0625 L 191.039062 129.707031 L 167.800781 129.707031 Z M 167.800781 129.0625 "/><path style=" stroke:none;fill-rule:nonzero;fill:rgb(79.998779%,79.60968%,79.219055%);fill-opacity:1;" d="M 173.609375 131.039062 L 185.230469 131.039062 L 185.230469 131.683594 L 173.609375 131.683594 Z M 173.609375 131.039062 "/><path style=" stroke:none;fill-rule:nonzero;fill:rgb(27.839661%,30.979919%,34.899902%);fill-opacity:1;" d="M 167.800781 134.808594 L 185.273438 134.808594 L 185.273438 137.472656 L 167.800781 137.472656 Z M 167.800781 134.808594 "/><path style=" stroke:none;fill-rule:nonzero;fill:rgb(100%,78.42865%,42.749023%);fill-opacity:1;" d="M 185.269531 134.808594 L 191.039062 134.808594 L 191.039062 137.472656 L 185.269531 137.472656 Z M 185.269531 134.808594 "/><path style=" stroke:none;fill-rule:nonzero;fill:rgb(79.998779%,79.60968%,79.219055%);fill-opacity:1;" d="M 109.144531 130.894531 L 132.382812 130.894531 L 132.382812 131.539062 L 109.144531 131.539062 Z M 109.144531 130.894531 "/><path style=" stroke:none;fill-rule:nonzero;fill:rgb(79.998779%,79.60968%,79.219055%);fill-opacity:1;" d="M 109.144531 132.871094 L 132.382812 132.871094 L 132.382812 133.515625 L 109.144531 133.515625 Z M 109.144531 132.871094 "/><path style=" stroke:none;fill-rule:nonzero;fill:rgb(79.998779%,79.60968%,79.219055%);fill-opacity:1;" d="M 109.144531 134.847656 L 132.382812 134.847656 L 132.382812 135.496094 L 109.144531 135.496094 Z M 109.144531 134.847656 "/><path style=" stroke:none;fill-rule:nonzero;fill:rgb(79.998779%,79.60968%,79.219055%);fill-opacity:1;" d="M 109.144531 136.824219 L 123.910156 136.824219 L 123.910156 137.472656 L 109.144531 137.472656 Z M 109.144531 136.824219 "/><path style=" stroke:none;fill-rule:nonzero;fill:rgb(79.998779%,79.60968%,79.219055%);fill-opacity:1;" d="M 120.628906 120.296875 L 132.382812 120.296875 L 132.382812 121.796875 L 120.628906 121.796875 Z M 120.628906 120.296875 "/><path style=" stroke:none;fill-rule:nonzero;fill:rgb(79.998779%,79.60968%,79.219055%);fill-opacity:1;" d="M 120.628906 123.128906 L 132.382812 123.128906 L 132.382812 123.773438 L 120.628906 123.773438 Z M 120.628906 123.128906 "/><path style=" stroke:none;fill-rule:nonzero;fill:rgb(79.998779%,79.60968%,79.219055%);fill-opacity:1;" d="M 120.628906 125.105469 L 127.753906 125.105469 L 127.753906 125.753906 L 120.628906 125.753906 Z M 120.628906 125.105469 "/><path style=" stroke:none;fill-rule:nonzero;fill:rgb(96.469116%,51.368713%,37.649536%);fill-opacity:1;" d="M 109.144531 120.296875 L 118.320312 120.296875 L 118.320312 128.980469 L 109.144531 128.980469 Z M 109.144531 120.296875 "/><path style=" stroke:none;fill-rule:nonzero;fill:rgb(96.469116%,51.368713%,37.649536%);fill-opacity:1;" d="M 125.375 32.167969 L 131.070312 32.167969 L 131.070312 37.859375 L 125.375 37.859375 Z M 125.375 32.167969 "/><path style=" stroke:none;fill-rule:nonzero;fill:rgb(27.839661%,30.979919%,34.899902%);fill-opacity:1;" d="M 123.554688 39.582031 L 132.890625 39.582031 L 132.890625 39.910156 L 123.554688 39.910156 Z M 123.554688 39.582031 "/><path style=" stroke:none;fill-rule:nonzero;fill:rgb(27.839661%,30.979919%,34.899902%);fill-opacity:1;" d="M 123.554688 40.664062 L 132.890625 40.664062 L 132.890625 40.992188 L 123.554688 40.992188 Z M 123.554688 40.664062 "/><path style=" stroke:none;fill-rule:nonzero;fill:rgb(27.839661%,30.979919%,34.899902%);fill-opacity:1;" d="M 125.828125 41.746094 L 130.621094 41.746094 L 130.621094 42.074219 L 125.828125 42.074219 Z M 125.828125 41.746094 "/><path style=" stroke:none;fill-rule:nonzero;fill:rgb(96.469116%,51.368713%,37.649536%);fill-opacity:1;" d="M 139.953125 32.167969 L 145.652344 32.167969 L 145.652344 37.859375 L 139.953125 37.859375 Z M 139.953125 32.167969 "/><path style=" stroke:none;fill-rule:nonzero;fill:rgb(27.839661%,30.979919%,34.899902%);fill-opacity:1;" d="M 138.136719 39.582031 L 147.46875 39.582031 L 147.46875 39.910156 L 138.136719 39.910156 Z M 138.136719 39.582031 "/><path style=" stroke:none;fill-rule:nonzero;fill:rgb(27.839661%,30.979919%,34.899902%);fill-opacity:1;" d="M 138.136719 40.664062 L 147.46875 40.664062 L 147.46875 40.992188 L 138.136719 40.992188 Z M 138.136719 40.664062 "/><path style=" stroke:none;fill-rule:nonzero;fill:rgb(27.839661%,30.979919%,34.899902%);fill-opacity:1;" d="M 140.40625 41.746094 L 145.199219 41.746094 L 145.199219 42.074219 L 140.40625 42.074219 Z M 140.40625 41.746094 "/><path style=" stroke:none;fill-rule:nonzero;fill:rgb(96.469116%,51.368713%,37.649536%);fill-opacity:1;" d="M 154.535156 32.167969 L 160.230469 32.167969 L 160.230469 37.859375 L 154.535156 37.859375 Z M 154.535156 32.167969 "/><path style=" stroke:none;fill-rule:nonzero;fill:rgb(27.839661%,30.979919%,34.899902%);fill-opacity:1;" d="M 152.714844 39.582031 L 162.050781 39.582031 L 162.050781 39.910156 L 152.714844 39.910156 Z M 152.714844 39.582031 "/><path style=" stroke:none;fill-rule:nonzero;fill:rgb(27.839661%,30.979919%,34.899902%);fill-opacity:1;" d="M 152.714844 40.664062 L 162.050781 40.664062 L 162.050781 40.992188 L 152.714844 40.992188 Z M 152.714844 40.664062 "/><path style=" stroke:none;fill-rule:nonzero;fill:rgb(27.839661%,30.979919%,34.899902%);fill-opacity:1;" d="M 154.988281 41.746094 L 159.78125 41.746094 L 159.78125 42.074219 L 154.988281 42.074219 Z M 154.988281 41.746094 "/><path style=" stroke:none;fill-rule:nonzero;fill:rgb(96.469116%,51.368713%,37.649536%);fill-opacity:1;" d="M 169.117188 32.167969 L 174.8125 32.167969 L 174.8125 37.859375 L 169.117188 37.859375 Z M 169.117188 32.167969 "/><path style=" stroke:none;fill-rule:nonzero;fill:rgb(27.839661%,30.979919%,34.899902%);fill-opacity:1;" d="M 167.296875 39.582031 L 176.632812 39.582031 L 176.632812 39.910156 L 167.296875 39.910156 Z M 167.296875 39.582031 "/><path style=" stroke:none;fill-rule:nonzero;fill:rgb(27.839661%,30.979919%,34.899902%);fill-opacity:1;" d="M 167.296875 40.664062 L 176.632812 40.664062 L 176.632812 40.992188 L 167.296875 40.992188 Z M 167.296875 40.664062 "/><path style=" stroke:none;fill-rule:nonzero;fill:rgb(27.839661%,30.979919%,34.899902%);fill-opacity:1;" d="M 169.566406 41.746094 L 174.359375 41.746094 L 174.359375 42.074219 L 169.566406 42.074219 Z M 169.566406 41.746094 "/><path style=" stroke:none;fill-rule:nonzero;fill:rgb(27.839661%,30.979919%,34.899902%);fill-opacity:1;" d="M 109.144531 105.550781 L 132.382812 105.550781 L 132.382812 107.472656 L 109.144531 107.472656 Z M 109.144531 105.550781 "/><path style=" stroke:none;fill-rule:nonzero;fill:rgb(79.998779%,79.60968%,79.219055%);fill-opacity:1;" d="M 109.144531 109.378906 L 132.382812 109.378906 L 132.382812 110.023438 L 109.144531 110.023438 Z M 109.144531 109.378906 "/><path style=" stroke:none;fill-rule:nonzero;fill:rgb(79.998779%,79.60968%,79.219055%);fill-opacity:1;" d="M 109.144531 111.5 L 132.382812 111.5 L 132.382812 112.144531 L 109.144531 112.144531 Z M 109.144531 111.5 "/><path style=" stroke:none;fill-rule:nonzero;fill:rgb(79.998779%,79.60968%,79.219055%);fill-opacity:1;" d="M 115.570312 113.617188 L 125.960938 113.617188 L 125.960938 114.261719 L 115.570312 114.261719 Z M 115.570312 113.617188 "/><path style=" stroke:none;fill-rule:nonzero;fill:rgb(100%,78.42865%,42.749023%);fill-opacity:1;" d="M 109.144531 87.695312 L 132.382812 87.695312 L 132.382812 101.863281 L 109.144531 101.863281 Z M 109.144531 87.695312 "/><path style=" stroke:none;fill-rule:nonzero;fill:rgb(27.839661%,30.979919%,34.899902%);fill-opacity:1;" d="M 138.472656 105.550781 L 161.710938 105.550781 L 161.710938 107.472656 L 138.472656 107.472656 Z M 138.472656 105.550781 "/><path style=" stroke:none;fill-rule:nonzero;fill:rgb(79.998779%,79.60968%,79.219055%);fill-opacity:1;" d="M 138.472656 109.378906 L 161.710938 109.378906 L 161.710938 110.023438 L 138.472656 110.023438 Z M 138.472656 109.378906 "/><path style=" stroke:none;fill-rule:nonzero;fill:rgb(79.998779%,79.60968%,79.219055%);fill-opacity:1;" d="M 138.472656 111.5 L 161.710938 111.5 L 161.710938 112.144531 L 138.472656 112.144531 Z M 138.472656 111.5 "/><path style=" stroke:none;fill-rule:nonzero;fill:rgb(79.998779%,79.60968%,79.219055%);fill-opacity:1;" d="M 144.898438 113.617188 L 155.289062 113.617188 L 155.289062 114.261719 L 144.898438 114.261719 Z M 144.898438 113.617188 "/><path style=" stroke:none;fill-rule:nonzero;fill:rgb(100%,78.42865%,42.749023%);fill-opacity:1;" d="M 138.472656 87.695312 L 161.710938 87.695312 L 161.710938 101.863281 L 138.472656 101.863281 Z M 138.472656 87.695312 "/><path style=" stroke:none;fill-rule:nonzero;fill:rgb(27.839661%,30.979919%,34.899902%);fill-opacity:1;" d="M 167.800781 105.550781 L 191.039062 105.550781 L 191.039062 107.472656 L 167.800781 107.472656 Z M 167.800781 105.550781 "/><path style=" stroke:none;fill-rule:nonzero;fill:rgb(79.998779%,79.60968%,79.219055%);fill-opacity:1;" d="M 167.800781 109.378906 L 191.039062 109.378906 L 191.039062 110.023438 L 167.800781 110.023438 Z M 167.800781 109.378906 "/><path style=" stroke:none;fill-rule:nonzero;fill:rgb(79.998779%,79.60968%,79.219055%);fill-opacity:1;" d="M 167.800781 111.5 L 191.039062 111.5 L 191.039062 112.144531 L 167.800781 112.144531 Z M 167.800781 111.5 "/><path style=" stroke:none;fill-rule:nonzero;fill:rgb(79.998779%,79.60968%,79.219055%);fill-opacity:1;" d="M 174.226562 113.617188 L 184.617188 113.617188 L 184.617188 114.261719 L 174.226562 114.261719 Z M 174.226562 113.617188 "/><path style=" stroke:none;fill-rule:nonzero;fill:rgb(96.469116%,51.368713%,37.649536%);fill-opacity:1;" d="M 167.800781 87.695312 L 191.039062 87.695312 L 191.039062 101.863281 L 167.800781 101.863281 Z M 167.800781 87.695312 "/><path style=" stroke:none;fill-rule:nonzero;fill:rgb(100%,78.42865%,42.749023%);fill-opacity:1;" d="M 109.144531 21.117188 L 181.15625 21.117188 L 181.15625 27.414062 L 109.144531 27.414062 Z M 109.144531 21.117188 "/><path style=" stroke:none;fill-rule:nonzero;fill:rgb(100%,100%,100%);fill-opacity:1;" d="M 156.378906 22.796875 L 179.476562 22.796875 L 179.476562 25.734375 L 156.378906 25.734375 Z M 156.378906 22.796875 "/><path style=" stroke:none;fill-rule:nonzero;fill:rgb(27.839661%,30.979919%,34.899902%);fill-opacity:1;" d="M 181.15625 21.117188 L 191.039062 21.117188 L 191.039062 27.414062 L 181.15625 27.414062 Z M 181.15625 21.117188 "/><path style=" stroke:none;fill-rule:nonzero;fill:rgb(100%,100%,100%);fill-opacity:1;" d="M 111.171875 23.882812 L 117.582031 23.882812 L 117.582031 24.648438 L 111.171875 24.648438 Z M 111.171875 23.882812 "/><path style=" stroke:none;fill-rule:nonzero;fill:rgb(100%,100%,100%);fill-opacity:1;" d="M 119.609375 23.882812 L 126.019531 23.882812 L 126.019531 24.648438 L 119.609375 24.648438 Z M 119.609375 23.882812 "/><path style=" stroke:none;fill-rule:nonzero;fill:rgb(100%,100%,100%);fill-opacity:1;" d="M 128.050781 23.882812 L 134.460938 23.882812 L 134.460938 24.648438 L 128.050781 24.648438 Z M 128.050781 23.882812 "/><path style=" stroke:none;fill-rule:nonzero;fill:rgb(100%,100%,100%);fill-opacity:1;" d="M 136.492188 23.882812 L 142.902344 23.882812 L 142.902344 24.648438 L 136.492188 24.648438 Z M 136.492188 23.882812 "/><path style=" stroke:none;fill-rule:nonzero;fill:rgb(96.469116%,51.368713%,37.649536%);fill-opacity:1;" d="M 99.695312 10.070312 L 200.488281 10.070312 L 200.488281 16.367188 L 99.695312 16.367188 Z M 99.695312 10.070312 "/><path style=" stroke:none;fill-rule:nonzero;fill:rgb(100%,100%,100%);fill-opacity:1;" d="M 104.667969 12.769531 L 126.359375 12.769531 L 126.359375 13.667969 L 104.667969 13.667969 Z M 104.667969 12.769531 "/><path style=" stroke:none;fill-rule:nonzero;fill:rgb(100%,100%,100%);fill-opacity:1;" d="M 136.222656 12.769531 L 142.207031 12.769531 L 142.207031 13.667969 L 136.222656 13.667969 Z M 136.222656 12.769531 "/><path style=" stroke:none;fill-rule:nonzero;fill:rgb(100%,100%,100%);fill-opacity:1;" d="M 144.105469 12.769531 L 150.09375 12.769531 L 150.09375 13.667969 L 144.105469 13.667969 Z M 144.105469 12.769531 "/><path style=" stroke:none;fill-rule:nonzero;fill:rgb(100%,100%,100%);fill-opacity:1;" d="M 167.382812 12.167969 L 177.265625 12.167969 L 177.265625 14.265625 L 167.382812 14.265625 Z M 167.382812 12.167969 "/><path style=" stroke:none;fill-rule:nonzero;fill:rgb(100%,100%,100%);fill-opacity:1;" d="M 178.769531 12.167969 L 188.652344 12.167969 L 188.652344 14.265625 L 178.769531 14.265625 Z M 178.769531 12.167969 "/><path style=" stroke:none;fill-rule:nonzero;fill:rgb(27.839661%,30.979919%,34.899902%);fill-opacity:1;" d="M 190.15625 12.167969 L 195.523438 12.167969 L 195.523438 14.265625 L 190.15625 14.265625 Z M 190.15625 12.167969 "/></g></svg>